<?xml version="1.0" standalone="no"?>
<!DOCTYPE svg PUBLIC "-//W3C//DTD SVG 20010904//EN"
 "http://www.w3.org/TR/2001/REC-SVG-20010904/DTD/svg10.dtd">
<svg version="1.0" xmlns="http://www.w3.org/2000/svg"
 width="1280.000000pt" height="1280.000000pt" viewBox="0 0 1280.000000 1280.000000"
 preserveAspectRatio="xMidYMid meet">
<metadata>
Created by potrace 1.15, written by Peter Selinger 2001-2017
</metadata>
<g transform="translate(0.000000,1280.000000) scale(0.100000,-0.100000)"
fill="#000000" stroke="none">
<path d="M4040 12739 c-275 -24 -483 -138 -594 -323 -32 -54 -36 -67 -36 -131
0 -86 5 -92 154 -185 75 -47 106 -60 130 -58 45 4 45 31 0 70 -78 69 -77 137
3 208 99 87 262 141 433 143 126 2 199 -13 270 -56 43 -26 55 -40 65 -72 6
-22 21 -58 32 -80 11 -22 28 -61 37 -88 15 -45 15 -52 -5 -124 -40 -151 -104
-249 -256 -393 -209 -198 -406 -308 -956 -535 -438 -180 -573 -245 -747 -360
-141 -93 -275 -219 -315 -295 -17 -33 -72 -205 -141 -440 -25 -85 -57 -178
-71 -207 -22 -45 -24 -57 -15 -78 27 -59 2 -160 -78 -313 -27 -51 -47 -99 -44
-106 8 -21 -33 -133 -89 -240 -84 -162 -189 -260 -622 -576 -304 -223 -377
-281 -480 -386 -190 -193 -356 -489 -443 -794 l-35 -125 10 -145 c6 -80 8
-195 6 -256 -7 -158 5 -196 134 -421 59 -103 112 -191 118 -195 20 -15 55 -9
55 10 0 9 -26 94 -59 187 l-59 170 -6 152 c-4 123 -2 160 10 189 8 20 30 104
49 187 39 180 70 262 138 365 142 219 315 376 782 710 344 246 455 335 598
479 71 72 89 96 91 124 2 19 24 79 48 134 73 162 81 196 80 316 -2 83 2 121
19 173 17 57 18 73 8 103 -34 104 18 310 142 560 254 514 524 707 1068 764
146 15 463 7 591 -16 129 -23 293 -77 365 -120 54 -32 149 -114 142 -122 -2
-1 -39 13 -83 32 -131 56 -223 77 -375 82 -108 4 -154 2 -215 -12 -291 -64
-543 -261 -764 -600 -70 -107 -195 -361 -225 -458 -42 -131 -58 -255 -58 -442
0 -188 10 -246 64 -381 17 -44 33 -105 36 -139 5 -57 3 -63 -34 -120 -46 -70
-113 -132 -273 -253 -171 -129 -278 -240 -324 -333 -53 -108 -57 -182 -21
-404 25 -151 27 -175 16 -233 -14 -78 -29 -108 -90 -186 -74 -95 -300 -265
-451 -341 -136 -68 -162 -86 -149 -101 28 -34 138 -7 241 59 31 20 138 74 237
120 296 139 491 268 518 344 6 15 19 80 28 145 17 109 17 118 2 151 -21 44
-21 87 -1 184 24 120 98 294 156 373 30 42 136 125 303 240 83 56 168 117 190
134 63 48 196 178 210 206 7 14 27 91 44 171 l32 146 -24 89 c-60 215 -87 388
-87 551 0 198 33 301 143 448 105 142 248 263 361 308 56 22 173 27 216 10
l24 -10 -36 -17 c-90 -43 -150 -144 -220 -371 -85 -278 -60 -355 227 -685 170
-195 235 -303 235 -390 0 -35 0 -35 -155 -50 -60 -6 -127 -15 -147 -21 -56
-14 -149 -105 -186 -181 -69 -142 -68 -281 2 -568 78 -316 80 -416 11 -570
-18 -41 -43 -99 -54 -128 -62 -157 -106 -207 -306 -341 -145 -97 -172 -129
-105 -123 133 12 303 90 401 184 156 150 237 328 319 698 l41 183 -3 191 -3
191 27 46 c32 54 76 90 154 126 l55 25 64 -31 c83 -41 108 -76 113 -159 4 -52
-2 -83 -34 -183 -32 -102 -36 -122 -23 -130 26 -17 45 -9 101 41 137 122 190
291 155 495 -40 228 -145 445 -449 930 -112 179 -125 205 -132 261 -16 131 41
306 110 339 37 17 82 14 96 -8 4 -7 8 -84 8 -171 0 -159 0 -160 55 -380 30
-122 64 -250 75 -286 35 -109 99 -226 185 -342 112 -149 211 -248 295 -292 37
-20 73 -42 79 -50 31 -37 111 -26 111 14 0 29 12 24 39 -15 46 -68 187 -191
261 -229 40 -20 76 -34 81 -30 15 9 10 46 -11 94 l-20 45 26 -35 c66 -85 169
-176 227 -200 74 -29 86 -18 51 52 -33 65 -32 72 14 63 59 -11 193 -82 289
-154 218 -164 373 -373 373 -505 0 -56 -171 -201 -385 -327 -400 -235 -670
-365 -882 -425 -22 -6 -14 -34 13 -44 35 -14 137 -12 349 5 318 26 353 23 608
-41 232 -58 293 -83 359 -145 33 -31 38 -42 38 -79 0 -40 -5 -49 -54 -97 -30
-28 -108 -87 -172 -129 -121 -80 -194 -143 -194 -168 0 -68 317 9 510 123 36
22 87 63 114 91 l48 51 167 19 c262 30 301 49 354 170 14 30 35 65 48 76 50
45 67 49 246 51 95 1 192 7 215 14 106 28 209 115 244 205 l17 46 13 -49 c24
-94 75 -151 100 -111 13 21 33 133 34 189 0 71 -30 190 -68 265 -36 72 -121
191 -214 302 -38 45 -66 82 -62 82 27 0 196 -130 282 -217 78 -78 109 -103
125 -101 30 4 33 46 7 98 -20 38 -277 314 -414 443 l-61 57 136 -89 c76 -49
154 -105 175 -123 l37 -33 176 1 c155 0 190 4 293 27 191 45 371 111 504 184
35 19 87 69 168 160 104 117 124 134 172 153 30 11 61 20 68 20 7 0 39 9 71
20 63 22 102 51 116 88 11 28 27 28 164 -3 61 -14 131 -30 157 -36 l47 -10 -1
-50 c0 -80 27 -101 235 -178 154 -57 193 -76 315 -150 133 -80 291 -123 321
-87 19 23 2 38 -59 55 -72 21 -180 75 -243 122 -119 89 -185 210 -195 357 l-5
84 49 -7 c79 -11 196 -44 239 -68 37 -21 41 -27 49 -80 8 -56 9 -57 68 -93 51
-31 65 -46 87 -93 22 -47 26 -70 26 -141 0 -80 1 -85 22 -88 28 -4 70 24 89
59 23 46 17 87 -27 167 l-41 74 22 58 22 58 -35 68 c-19 38 -53 90 -76 116
-44 50 -146 108 -190 108 -54 0 -54 17 -1 30 84 20 269 8 355 -23 39 -14 121
-44 184 -66 63 -22 118 -44 124 -50 5 -5 12 -45 16 -88 5 -70 8 -78 28 -81 46
-7 77 117 49 196 -37 103 -130 191 -273 259 -65 31 -84 36 -175 40 -57 2 -175
10 -262 17 l-159 13 -161 -69 c-197 -85 -235 -95 -408 -102 -189 -9 -218 -16
-402 -97 -159 -70 -227 -91 -461 -144 -150 -34 -222 -64 -384 -159 -70 -41
-148 -84 -172 -94 -201 -87 -523 -87 -837 -1 -72 20 -102 20 -102 0 0 -19 66
-71 148 -117 45 -26 81 -48 80 -49 -2 -2 -41 10 -88 25 -47 16 -95 29 -108 29
-27 1 -38 -20 -23 -47 6 -11 -31 8 -92 48 -56 37 -195 116 -309 176 -114 59
-206 110 -203 112 2 2 82 -37 178 -87 180 -94 237 -111 237 -71 0 26 -57 71
-231 184 -334 217 -493 287 -964 429 -300 90 -369 115 -485 172 -74 37 -126
65 -115 62 11 -3 61 -17 112 -32 97 -28 166 -30 171 -5 2 10 -44 40 -145 93
-126 66 -164 92 -256 175 l-109 97 -64 165 c-68 175 -124 393 -124 484 0 28 9
83 20 121 l19 70 -6 -125 c-7 -156 8 -220 79 -345 28 -49 63 -114 77 -142 20
-39 33 -55 56 -61 17 -5 34 -6 39 -1 5 5 0 70 -13 158 -26 185 -29 419 -5 541
41 218 140 367 289 435 120 56 127 55 72 -4 -73 -78 -90 -130 -65 -198 19 -53
43 -43 160 65 104 95 109 98 229 145 127 48 203 66 579 133 113 20 227 42 254
49 l48 13 -85 -87 c-120 -122 -142 -175 -111 -266 18 -55 28 -65 62 -65 16 0
22 6 22 23 1 36 35 99 74 136 34 33 40 35 119 39 82 4 84 4 105 -23 29 -37 28
-62 -7 -116 -57 -89 -85 -106 -196 -124 -135 -21 -185 -39 -225 -80 -32 -33
-33 -36 -17 -53 16 -17 15 -20 -14 -48 -33 -32 -37 -79 -8 -97 22 -14 92 21
153 74 25 22 52 39 59 37 8 -2 -29 -42 -84 -91 -106 -95 -105 -93 -150 -267
-16 -65 -76 -120 -164 -149 -79 -25 -96 -37 -88 -56 14 -38 171 -19 265 32 68
37 110 93 143 195 15 46 36 97 46 114 26 43 99 74 99 42 0 -7 12 -38 26 -68
18 -39 52 -81 121 -148 l96 -92 -96 -93 c-56 -54 -98 -104 -102 -120 -13 -51
10 -117 40 -117 26 0 132 90 180 152 26 35 52 67 56 71 3 5 21 1 38 -7 l31
-16 115 106 c63 58 115 111 115 117 0 7 -8 26 -18 42 l-19 30 81 25 c76 24 83
29 133 90 29 36 53 73 53 82 0 10 15 25 33 34 77 40 139 88 161 128 31 54 39
101 21 116 -17 14 -13 16 -135 -69 -66 -46 -113 -71 -155 -82 l-60 -15 73 74
c60 63 72 80 72 108 0 19 -5 34 -11 34 -6 0 -39 -16 -72 -37 -52 -32 -325
-129 -335 -119 -8 8 32 135 64 202 40 85 117 202 169 259 21 22 48 61 61 87
48 95 128 151 260 183 107 26 218 19 272 -18 62 -40 86 -94 80 -179 -8 -111
26 -122 169 -54 39 19 79 46 88 60 10 14 24 26 31 26 17 0 17 -8 -1 -40 -29
-51 -9 -124 42 -151 20 -11 33 -7 105 29 46 22 98 56 117 76 33 34 35 35 64
20 l29 -16 -31 -32 c-50 -51 -58 -102 -29 -178 14 -36 27 -35 101 8 52 30 64
34 85 25 16 -8 22 -17 18 -28 -4 -8 -11 -36 -18 -62 -15 -61 -30 -90 -67 -125
-43 -41 -41 -66 5 -66 45 0 172 42 222 74 37 23 96 83 104 106 2 8 20 8 70 0
37 -5 118 -14 180 -19 113 -10 113 -10 152 17 97 66 226 282 226 377 0 100
-34 115 -333 150 -115 14 -221 28 -235 31 -116 25 -192 68 -192 108 0 13 7 43
15 66 37 106 3 167 -120 214 -22 8 -93 31 -158 51 -124 38 -157 59 -157 99 0
15 -11 33 -27 46 -25 20 -35 21 -108 14 -140 -13 -167 -6 -390 101 l-120 57
-80 -13 -79 -12 -93 98 c-168 176 -326 446 -390 667 -26 90 -43 133 -56 139
-25 14 -183 23 -240 15 -45 -7 -45 -7 -57 -58 -27 -110 7 -305 79 -452 20 -42
35 -76 32 -76 -8 0 -106 108 -165 180 -117 146 -186 269 -186 336 0 58 -37 68
-257 69 -100 0 -185 -4 -190 -8 -4 -5 -10 -45 -11 -90 -6 -141 34 -253 182
-502 42 -71 95 -168 117 -213 46 -94 47 -91 -36 -131 -225 -112 -653 -56 -886
115 -59 43 -88 82 -110 148 -13 43 -20 51 -40 51 -30 0 -59 -53 -59 -108 0
-141 159 -236 607 -363 155 -44 204 -64 157 -64 -48 0 -607 -63 -712 -81 -206
-34 -294 -65 -627 -219 -115 -54 -254 -114 -308 -134 -173 -65 -383 -113 -443
-101 -47 8 -148 79 -169 118 -31 58 -15 99 68 183 71 70 142 120 400 280 273
169 307 230 277 506 -15 136 -31 170 -68 147 -37 -23 -45 -61 -38 -167 l7 -98
-32 -48 c-18 -27 -58 -68 -88 -93 -54 -42 -277 -161 -286 -151 -2 2 17 34 43
70 62 85 114 184 148 283 37 108 39 251 5 338 -46 117 -169 215 -332 265 -154
47 -420 76 -579 61z m4482 -1215 c75 -24 181 -87 258 -155 32 -28 33 -30 10
-25 -14 4 -64 10 -112 16 -104 11 -128 22 -216 102 -37 34 -80 70 -97 80 l-30
19 55 -6 c30 -4 90 -18 132 -31z m-502 -1284 c-6 -11 -16 -17 -22 -14 -7 5 -5
12 7 21 25 18 28 17 15 -7z"/>
<path d="M8397 10988 c-46 -12 -61 -38 -59 -103 3 -99 69 -281 227 -625 100
-216 123 -279 135 -371 16 -126 36 -185 77 -230 60 -66 110 -90 398 -190 159
-55 249 -95 304 -137 29 -21 39 -24 70 -16 30 7 37 14 39 38 11 93 -70 155
-361 276 -70 29 -126 55 -124 57 2 1 27 -1 55 -7 28 -5 142 -14 254 -19 242
-12 287 -22 540 -122 179 -70 184 -71 268 -70 113 2 278 16 425 36 190 25 392
22 565 -8 275 -48 432 -45 588 12 78 28 100 46 89 75 -6 15 -27 16 -184 14
l-178 -2 -185 52 c-102 29 -238 60 -302 69 -111 16 -126 15 -265 -2 -175 -21
-252 -21 -376 1 -97 16 -117 26 -117 54 0 47 104 74 285 74 129 -1 155 -4 345
-47 289 -66 380 -80 500 -80 115 0 291 28 435 68 79 22 110 25 250 25 141 0
182 -4 345 -35 251 -47 236 -49 245 26 4 33 3 64 -1 69 -11 10 -331 94 -460
121 -66 14 -155 22 -269 26 -172 5 -205 2 -495 -43 -130 -20 -393 -23 -472 -5
-71 15 -141 63 -136 93 8 58 242 67 548 23 344 -49 511 -34 703 64 104 53 328
211 375 266 48 54 40 115 -17 128 -18 5 -39 -6 -90 -47 -173 -138 -310 -203
-481 -226 -101 -14 -232 -1 -480 46 -447 84 -532 70 -1035 -168 -375 -178
-505 -217 -751 -225 -103 -4 -198 -1 -260 7 -165 20 -331 77 -378 129 -16 18
-17 24 -6 51 11 26 18 30 50 30 47 0 90 -18 216 -90 215 -125 319 -130 559
-30 168 71 260 100 337 108 71 7 73 8 76 36 l4 29 -119 -6 c-79 -3 -156 -14
-233 -32 -240 -58 -433 -28 -637 97 -89 55 -137 97 -367 322 l-264 259 14 34
c12 29 12 37 0 62 -26 49 -142 80 -219 59z"/>
<path d="M2843 10463 c-23 -3 -47 -20 -84 -61 -231 -251 -335 -540 -391 -1074
-9 -95 -9 -133 1 -198 17 -102 9 -149 -39 -249 -66 -136 -135 -229 -344 -466
-58 -66 -106 -125 -106 -132 0 -20 36 -33 92 -33 29 0 118 -14 198 -31 238
-50 200 -56 342 58 142 115 181 157 214 227 29 63 31 127 5 221 -29 103 -35
166 -23 237 6 34 18 126 27 203 9 77 21 167 27 200 6 33 10 110 9 170 l-2 110
96 204 95 204 109 111 c100 103 151 174 151 209 0 8 -25 31 -56 51 -55 37 -57
37 -172 41 -64 2 -131 1 -149 -2z"/>
<path d="M3661 9693 c-57 -113 -49 -237 30 -479 56 -172 58 -200 29 -359 -11
-60 -20 -117 -20 -127 0 -38 30 -30 93 27 53 48 89 68 203 116 76 33 142 63
147 68 5 5 10 28 10 50 0 52 -36 112 -127 213 -114 127 -185 216 -208 261 -12
23 -36 92 -53 152 -30 101 -34 110 -58 113 -21 3 -29 -4 -46 -35z"/>
<path d="M4441 8417 c-41 -51 -94 -230 -95 -326 l-1 -66 38 -3 c32 -3 43 2 67
28 59 63 92 210 71 311 -7 29 -17 57 -24 61 -18 12 -43 9 -56 -5z"/>
<path d="M3364 8230 c-100 -20 -147 -35 -199 -64 -96 -52 -185 -118 -253 -185
-150 -148 -191 -274 -141 -431 15 -46 22 -93 22 -160 1 -93 0 -97 -47 -200
-40 -90 -58 -116 -122 -180 -41 -42 -74 -82 -74 -89 0 -10 12 -12 53 -7 28 3
91 9 139 12 108 8 156 -8 213 -72 l40 -45 52 11 c28 6 75 26 105 44 77 46 86
51 161 81 100 40 266 154 329 225 113 128 185 287 208 458 9 67 8 114 -5 240
-17 172 -25 206 -62 270 -31 55 -107 99 -183 107 -30 3 -66 7 -80 9 -14 2 -84
-9 -156 -24z"/>
<path d="M1775 8069 c-16 -5 -89 -13 -161 -18 -151 -11 -173 -18 -304 -105
-390 -260 -684 -755 -715 -1206 -12 -160 36 -370 83 -370 11 0 45 21 77 47 61
51 98 61 221 62 69 1 85 12 106 75 12 34 20 41 73 61 537 206 750 316 878 454
109 119 137 230 98 386 -26 99 -24 120 20 269 16 55 29 118 29 141 0 87 -75
147 -230 184 -119 28 -141 31 -175 20z"/>
<path d="M8959 6864 c-237 -60 -305 -81 -387 -121 -84 -39 -102 -67 -102 -150
0 -47 -2 -50 -82 -130 -46 -44 -93 -86 -105 -92 -30 -15 -120 -35 -296 -66
-81 -14 -155 -29 -165 -35 -43 -23 -587 -70 -1027 -90 -605 -26 -583 -25 -591
-18 -3 4 8 25 25 47 30 38 89 87 293 245 112 85 116 92 78 144 -76 105 -227
179 -444 217 -116 20 -397 20 -553 0 -430 -55 -887 -202 -1135 -364 -63 -41
-91 -68 -155 -153 -90 -119 -176 -212 -215 -236 -16 -9 -28 -22 -28 -29 0 -6
23 -31 52 -55 160 -132 170 -158 87 -227 -69 -59 -65 -78 21 -108 159 -54 312
-51 615 11 121 25 166 31 183 23 20 -9 21 -12 7 -28 -46 -50 -223 -115 -395
-145 -207 -35 -633 -29 -874 12 -73 12 -91 13 -102 2 -19 -18 -6 -34 52 -63
40 -21 43 -24 19 -20 -78 13 -259 24 -274 16 -24 -13 -176 -189 -251 -292
-125 -171 -207 -337 -257 -527 -36 -135 -38 -344 -4 -472 29 -110 103 -265
174 -363 46 -63 53 -77 37 -77 -37 0 -126 23 -179 46 -55 25 -115 31 -126 14
-3 -5 1 -22 9 -37 35 -67 160 -160 435 -325 508 -304 923 -640 1120 -907 76
-103 153 -258 182 -366 30 -110 30 -297 1 -406 -92 -344 -370 -526 -832 -546
-138 -6 -170 -13 -170 -38 0 -23 100 -63 190 -75 83 -12 265 -8 423 9 37 4 67
6 67 4 0 -5 -106 -51 -157 -68 -66 -22 -188 -42 -380 -60 -216 -20 -776 -15
-976 9 -392 48 -712 113 -917 188 -325 117 -588 368 -607 579 -5 52 -2 67 25
121 36 72 110 160 209 248 63 57 115 94 437 320 204 143 381 339 473 525 104
209 90 351 -48 479 -103 96 -320 185 -336 139 -4 -12 67 -88 145 -154 50 -43
54 -73 21 -150 -19 -44 -26 -51 -67 -62 -38 -11 -52 -11 -84 0 -77 26 -134 62
-190 120 l-57 58 -2 110 c-1 61 2 147 6 193 7 80 7 84 -24 147 -80 162 -314
299 -687 401 -101 27 -164 27 -164 -1 0 -17 35 -36 185 -100 250 -106 321
-150 383 -236 41 -57 42 -61 42 -137 0 -57 -7 -98 -27 -157 -23 -68 -27 -98
-27 -195 -1 -134 10 -165 91 -243 56 -55 126 -94 243 -135 47 -16 114 -43 150
-60 l65 -30 -45 -20 c-71 -32 -161 -46 -258 -39 -96 7 -156 23 -235 62 -170
86 -267 221 -252 355 20 174 -104 416 -329 645 l-88 90 -27 129 -27 129 32
124 32 124 87 95 c47 53 84 101 82 107 -7 21 -81 19 -143 -4 -89 -33 -188
-137 -248 -261 -118 -244 -134 -401 -55 -522 17 -25 84 -90 150 -146 146 -124
172 -166 129 -205 -17 -15 -30 -17 -101 -10 -110 9 -194 36 -262 85 -117 84
-182 221 -181 380 0 56 6 98 18 124 19 46 12 59 -35 54 -66 -6 -146 -150 -156
-283 -11 -136 43 -279 142 -378 51 -51 67 -59 282 -147 285 -116 311 -129 356
-179 44 -49 69 -96 98 -187 59 -185 99 -233 282 -337 121 -68 194 -127 203
-162 11 -44 -36 -102 -279 -346 -316 -317 -374 -396 -418 -567 -50 -196 6
-366 176 -538 193 -196 485 -345 930 -474 425 -124 1033 -210 1480 -210 151 0
175 -5 175 -37 0 -31 -158 -79 -294 -89 -90 -7 -116 -15 -116 -39 0 -16 64
-44 126 -54 148 -23 321 37 644 223 63 37 130 71 150 76 19 6 159 33 310 60
190 34 307 60 379 85 300 105 603 315 771 537 79 104 118 189 130 280 5 40 16
104 25 141 8 37 19 99 23 137 l7 70 62 -40 c127 -80 181 -162 192 -290 5 -62
9 -75 24 -78 27 -5 54 24 76 84 45 118 36 213 -29 349 -71 145 -169 256 -540
608 -144 137 -145 138 -105 132 101 -16 339 -116 403 -170 32 -27 77 -33 85
-11 24 62 -270 348 -584 569 -68 47 -136 97 -151 111 -15 13 -61 43 -103 67
-70 40 -91 60 -237 232 -270 316 -232 264 -478 667 l-76 125 -38 172 -38 171
17 109 c21 133 50 190 150 288 79 77 166 133 295 188 73 31 135 51 375 120 29
9 40 17 40 32 0 19 -6 20 -110 18 -60 -1 -175 -8 -255 -17 -153 -16 -419 -29
-385 -19 11 3 76 21 145 39 68 19 128 40 132 47 14 21 9 36 -14 39 -13 2 9 8
47 12 239 25 472 69 602 113 43 14 139 56 213 94 161 82 251 108 311 90 50
-15 66 -48 35 -72 -62 -49 -244 -121 -415 -164 -173 -44 -287 -58 -458 -59
-119 -1 -166 -5 -175 -14 -11 -11 -10 -16 5 -27 42 -31 630 -32 792 -1 152 29
223 56 621 236 538 245 801 333 1119 375 152 20 445 32 445 18 0 -5 -61 -49
-135 -98 -144 -94 -228 -172 -239 -223 -20 -87 97 -181 271 -217 37 -8 136
-19 218 -25 230 -17 296 -28 433 -72 121 -39 133 -41 257 -41 148 -1 249 21
363 76 72 35 142 94 142 120 0 28 -58 20 -207 -28 -178 -59 -266 -72 -375 -57
-72 10 -104 23 -237 90 l-154 77 -119 -2 c-109 -2 -118 -1 -118 16 0 47 58 89
230 166 58 26 198 96 312 156 361 191 574 275 808 319 157 31 252 25 338 -19
80 -40 143 -55 322 -77 104 -12 160 -24 197 -41 117 -54 129 -128 43 -262 -47
-72 -50 -91 -15 -91 69 0 167 89 183 166 20 91 -17 185 -107 275 -67 66 -99
84 -275 150 -129 49 -159 66 -244 134 -80 65 -194 80 -368 50 -72 -13 -396
-90 -468 -112 -13 -4 -5 13 30 58 94 121 154 178 217 209 l62 30 96 -12 c91
-11 101 -10 202 15 188 47 269 35 422 -64 146 -95 194 -113 208 -76 9 23 -21
89 -55 124 -92 96 -267 153 -629 206 l-155 23 -165 -42z"/>
</g>
</svg>
