<?xml version="1.0" standalone="no"?>
<!DOCTYPE svg PUBLIC "-//W3C//DTD SVG 20010904//EN"
 "http://www.w3.org/TR/2001/REC-SVG-20010904/DTD/svg10.dtd">
<svg version="1.0" xmlns="http://www.w3.org/2000/svg"
 width="1280.000000pt" height="1025.000000pt" viewBox="0 0 1280.000000 1025.000000"
 preserveAspectRatio="xMidYMid meet">
<metadata>
Created by potrace 1.15, written by Peter Selinger 2001-2017
</metadata>
<g transform="translate(0.000000,1025.000000) scale(0.100000,-0.100000)"
fill="#000000" stroke="none">
<path d="M0 5120 l0 -5120 5017 0 5018 0 -1647 1648 -1647 1647 14 35 c8 19
37 96 65 170 113 292 321 682 503 942 243 346 572 687 883 914 497 362 1034
562 1704 635 169 19 639 16 830 -5 523 -57 953 -153 1508 -338 116 -39 214
-69 216 -67 2 2 78 116 169 253 l167 249 -97 106 c-172 188 -633 641 -828 815
-1201 1069 -2344 1644 -3555 1791 -867 104 -1755 -22 -2925 -417 -285 -96
-410 -141 -1125 -411 -549 -206 -834 -307 -1100 -390 -198 -62 -369 -109 -380
-105 -6 2 -632 625 -1393 1386 -760 760 -1386 1382 -1390 1382 -4 0 -7 -2304
-7 -5120z"/>
</g>
</svg>
