<?xml version="1.0" standalone="no"?>
<!DOCTYPE svg PUBLIC "-//W3C//DTD SVG 20010904//EN"
 "http://www.w3.org/TR/2001/REC-SVG-20010904/DTD/svg10.dtd">
<svg version="1.0" xmlns="http://www.w3.org/2000/svg"
 width="1280.000000pt" height="958.000000pt" viewBox="0 0 1280.000000 958.000000"
 preserveAspectRatio="xMidYMid meet">
<metadata>
Created by potrace 1.15, written by Peter Selinger 2001-2017
</metadata>
<g transform="translate(0.000000,958.000000) scale(0.100000,-0.100000)"
fill="#000000" stroke="none">
<path d="M2191 9485 c213 -605 847 -1156 1879 -1632 484 -223 1062 -437 1675
-618 99 -29 173 -56 165 -58 -8 -3 -114 -24 -235 -47 -496 -94 -859 -190
-1299 -342 -144 -49 -273 -92 -287 -95 -14 -3 -98 7 -185 21 -406 65 -652 86
-999 87 -328 1 -544 -19 -830 -77 -422 -85 -843 -265 -1213 -517 -56 -39 -101
-71 -99 -73 1 -2 33 8 70 21 106 39 389 123 539 161 702 177 1247 185 1546 24
56 -30 118 -78 111 -84 -2 -2 -51 -30 -109 -61 -425 -231 -713 -430 -966 -668
l-79 -74 -180 -43 c-592 -141 -961 -286 -1229 -484 -100 -73 -236 -209 -301
-300 -48 -68 -155 -253 -155 -269 0 -4 39 31 88 79 415 412 884 582 1304 473
l38 -10 -44 -87 c-138 -277 -207 -564 -207 -870 l0 -143 -72 -46 c-443 -282
-657 -648 -747 -1273 -10 -74 -18 -136 -16 -137 1 -2 16 30 31 69 167 427 409
729 661 824 42 16 99 28 146 31 l76 6 22 -74 c79 -275 205 -555 351 -782 22
-33 39 -63 39 -67 0 -4 -34 -36 -76 -71 -219 -183 -342 -406 -400 -724 -22
-126 -29 -438 -14 -636 15 -203 25 -233 33 -108 14 187 62 405 126 565 120
299 307 484 565 558 86 25 88 26 104 7 10 -11 226 -254 482 -541 256 -287 484
-549 508 -583 128 -183 202 -443 202 -707 l0 -110 3214 0 3213 0 13 58 c19 88
25 322 10 421 -80 547 -554 1022 -1470 1475 -362 179 -664 304 -1365 565
-1030 384 -1243 482 -1467 675 -294 252 -488 648 -465 947 21 263 265 639 582
896 168 136 450 288 662 358 l111 36 144 -94 c252 -165 297 -219 430 -520 143
-325 232 -481 371 -653 249 -308 709 -600 1427 -906 280 -120 395 -143 682
-136 193 5 594 47 561 59 -10 4 -140 21 -288 38 -149 18 -279 35 -290 38 -14
4 -5 10 35 20 77 19 152 55 225 108 67 48 147 135 110 121 -108 -41 -197 -59
-331 -63 -208 -8 -374 20 -594 100 l-95 34 60 12 c127 25 276 64 415 109 l145
46 -205 7 c-329 10 -551 53 -660 127 -76 51 -192 168 -240 243 -22 34 -38 64
-36 67 3 2 27 -3 53 -13 64 -23 246 -31 364 -16 226 28 284 38 259 44 -14 3
-61 13 -105 23 -269 56 -657 213 -813 329 -61 46 -190 206 -305 380 -126 192
-228 419 -252 563 l-7 42 244 -173 c133 -95 412 -295 618 -443 752 -543 916
-655 1150 -788 334 -190 684 -339 1036 -441 207 -60 397 -98 684 -135 379 -49
511 -82 665 -164 84 -44 199 -122 298 -201 31 -26 57 -44 57 -40 0 15 -52 106
-93 162 -62 83 -162 164 -272 218 -120 59 -207 86 -425 132 l-183 38 144 3
c363 8 740 -63 1035 -193 72 -32 76 -31 34 5 -143 122 -349 226 -534 270 -151
36 -221 41 -631 50 -431 8 -489 14 -723 66 -336 75 -679 213 -952 384 -202
126 -836 609 -1133 862 -137 117 -587 560 -587 577 0 12 311 -69 438 -114 388
-136 670 -328 822 -560 25 -40 52 -86 59 -103 8 -18 17 -32 21 -32 14 0 23
128 17 224 -9 140 -53 260 -141 386 l-46 65 50 3 c129 8 358 -104 595 -292
128 -101 388 -357 518 -510 l102 -119 7 39 c12 69 8 267 -7 363 -9 52 -27 127
-40 168 -14 40 -25 78 -25 83 0 10 12 9 163 -21 345 -67 611 -239 837 -541 81
-109 75 -109 126 -18 90 158 77 305 -37 450 l-38 49 37 -6 c78 -12 210 -55
297 -97 201 -96 321 -222 524 -548 40 -65 75 -118 76 -118 2 0 25 64 51 143
26 78 60 172 77 210 34 77 43 80 122 43 128 -59 216 -232 233 -455 l7 -86 37
62 c109 184 178 397 178 554 0 179 -70 320 -244 494 -124 123 -239 201 -451
305 -209 102 -290 131 -701 250 -781 227 -1083 342 -1158 443 -21 28 -21 28
-2 60 72 119 81 170 42 252 -33 72 -129 156 -307 270 -202 129 -236 154 -624
455 -503 390 -707 534 -970 681 -575 322 -1098 485 -1800 563 -283 32 -734 52
-902 40 l-118 -7 145 -18 c1074 -130 2006 -462 2198 -782 70 -117 50 -220 -64
-327 -285 -266 -914 -255 -2079 36 -1714 428 -2905 1036 -3507 1789 -44 55
-85 105 -90 110 -5 6 5 -30 23 -80z m6540 -2465 c170 -35 341 -112 436 -196
43 -37 223 -261 223 -277 0 -2 -22 7 -49 19 -81 39 -157 52 -333 58 -230 8
-230 8 -533 211 -141 94 -263 157 -335 171 -52 11 -33 22 48 29 42 4 82 8 87
11 6 2 89 2 185 -1 122 -3 204 -10 271 -25z m3105 -1351 c75 -14 191 -70 249
-122 62 -53 113 -153 67 -128 -10 5 -55 15 -101 21 -113 15 -171 39 -277 112
-49 34 -106 73 -128 87 l-38 26 33 6 c56 10 132 10 195 -2z"/>
</g>
</svg>
