<?xml version="1.0" standalone="no"?>
<!DOCTYPE svg PUBLIC "-//W3C//DTD SVG 20010904//EN"
 "http://www.w3.org/TR/2001/REC-SVG-20010904/DTD/svg10.dtd">
<svg version="1.0" xmlns="http://www.w3.org/2000/svg"
 width="1280.000000pt" height="1116.000000pt" viewBox="0 0 1280.000000 1116.000000"
 preserveAspectRatio="xMidYMid meet">
<metadata>
Created by potrace 1.15, written by Peter Selinger 2001-2017
</metadata>
<g transform="translate(0.000000,1116.000000) scale(0.100000,-0.100000)"
fill="#000000" stroke="none">
<path d="M6001 11096 c-84 -88 -111 -148 -111 -249 0 -277 268 -574 625 -691
127 -42 211 -57 350 -63 277 -12 493 62 861 293 219 138 327 195 439 230 147
47 272 41 387 -17 75 -38 198 -141 398 -335 107 -104 227 -212 265 -240 80
-59 205 -130 205 -117 0 5 -62 69 -137 144 -169 165 -226 233 -387 469 -183
269 -213 307 -268 350 -51 41 -128 70 -183 70 -110 0 -285 -83 -552 -263 -231
-156 -377 -233 -543 -287 -349 -114 -665 -98 -961 51 -235 117 -397 355 -362
530 7 38 13 46 43 56 43 15 120 16 154 3 14 -5 46 -28 70 -50 l44 -41 -5 43
c-7 54 -24 89 -70 139 l-35 39 -83 0 -82 0 -62 -64z"/>
<path d="M8943 10625 c4 -22 25 -77 47 -122 112 -226 361 -475 761 -762 59
-42 106 -77 105 -78 -4 -4 -437 46 -496 58 -172 33 -322 95 -512 212 -146 90
-226 132 -234 124 -14 -13 32 -81 102 -152 84 -85 191 -158 329 -225 133 -65
214 -91 462 -149 211 -50 317 -84 382 -123 56 -34 122 -89 116 -98 -5 -8 -116
-24 -237 -35 -36 -3 -108 -1 -160 5 -185 21 -319 70 -564 205 -76 43 -192 104
-258 136 -160 79 -176 78 -107 -8 151 -190 403 -367 695 -488 120 -49 229 -73
393 -85 156 -11 186 -19 204 -51 15 -28 5 -125 -17 -176 l-17 -38 -8 48 c-14
86 -47 107 -221 143 -163 34 -261 66 -398 130 -224 104 -327 91 -590 -71 -280
-174 -560 -431 -707 -650 -60 -89 -96 -167 -137 -292 -117 -365 -144 -741 -80
-1148 20 -121 52 -220 97 -294 19 -31 38 -67 42 -81 15 -51 88 -205 118 -249
42 -63 155 -178 257 -265 116 -99 242 -193 525 -391 439 -308 662 -483 847
-669 318 -316 476 -630 454 -898 -15 -176 -86 -326 -225 -472 -209 -218 -482
-294 -907 -252 -141 14 -173 20 -267 56 -472 177 -779 373 -1023 652 -123 141
-142 165 -384 483 -643 844 -922 1092 -1358 1208 -114 30 -123 31 -342 31
-201 1 -236 -2 -329 -22 -300 -68 -548 -205 -791 -439 -195 -187 -330 -374
-465 -643 -147 -293 -202 -478 -305 -1025 -80 -423 -123 -570 -220 -740 -51
-88 -148 -198 -228 -257 -30 -22 -120 -74 -201 -115 -146 -74 -146 -74 -306
-100 -119 -20 -197 -26 -305 -27 -130 0 -154 3 -235 28 -137 42 -295 124 -443
230 -74 53 -138 96 -143 96 -5 0 -15 13 -24 30 -8 16 -58 80 -111 141 -202
236 -305 390 -423 634 -43 88 -99 196 -126 239 -26 43 -65 127 -86 185 -20 58
-49 138 -63 176 -14 39 -26 87 -26 108 0 22 -10 56 -24 80 -14 23 -34 77 -45
120 -12 43 -33 117 -47 165 -55 192 -100 432 -130 692 -21 193 -31 853 -15
1057 48 604 213 1111 479 1469 33 45 67 84 76 87 9 4 16 5 16 3 0 -2 -42 -67
-94 -144 -111 -166 -212 -365 -261 -514 -47 -143 -88 -329 -75 -342 6 -6 25
-2 55 13 64 32 100 23 169 -40 42 -39 67 -75 112 -162 135 -265 253 -378 454
-433 106 -29 401 -21 401 11 0 5 -42 15 -92 22 -310 42 -505 167 -587 379 -11
27 -34 114 -51 193 -22 106 -40 160 -65 207 -31 55 -33 64 -18 68 9 2 53 12
97 21 118 25 233 70 290 113 109 83 169 223 148 348 -21 120 -80 212 -165 255
-47 24 -55 13 -38 -52 16 -58 16 -175 1 -221 -25 -76 -117 -121 -201 -99 -51
14 -106 52 -115 81 -11 34 29 104 88 154 30 27 66 69 80 95 27 50 53 148 43
159 -4 3 -27 -4 -51 -17 -85 -45 -66 -15 30 48 258 168 433 199 844 146 128
-16 217 -23 222 -18 15 15 -108 113 -186 148 -125 58 -190 70 -380 70 -126 0
-191 -5 -251 -18 -44 -10 -106 -18 -138 -19 -47 -1 -64 -7 -93 -29 -19 -15
-58 -35 -86 -45 -254 -83 -549 -334 -756 -643 -151 -226 -259 -494 -305 -761
-8 -47 -21 -101 -29 -120 -65 -153 -114 -654 -103 -1045 13 -472 87 -895 240
-1365 35 -107 67 -210 71 -228 4 -18 34 -74 68 -125 57 -86 61 -97 68 -167 8
-92 43 -194 125 -371 82 -173 82 -213 6 -291 -32 -34 -36 -45 -40 -101 -2 -34
1 -82 8 -106 6 -25 61 -116 133 -222 114 -167 137 -204 175 -286 21 -46 167
-215 200 -232 15 -7 72 -57 127 -110 111 -108 164 -148 275 -210 41 -23 93
-60 115 -81 131 -125 560 -313 767 -336 34 -3 69 -12 77 -18 8 -6 102 -18 209
-26 l196 -15 6 -30 c4 -17 5 -47 2 -68 -3 -29 -11 -41 -41 -59 -73 -44 -273
-201 -327 -255 -30 -31 -69 -82 -87 -114 l-32 -58 -20 24 c-18 22 -30 25 -130
31 -120 7 -127 5 -140 -47 -5 -20 0 -33 18 -55 25 -28 28 -29 124 -29 54 0
153 4 221 9 82 6 122 6 122 -1 0 -17 -87 -35 -210 -43 -63 -4 -123 -11 -133
-15 -13 -5 -17 -19 -17 -57 0 -56 -4 -55 95 -29 47 12 183 15 170 3 -6 -5 -29
-14 -52 -20 -22 -7 -64 -28 -92 -47 -29 -20 -63 -35 -80 -35 -39 0 -108 -26
-154 -57 -34 -23 -97 -100 -97 -118 0 -8 56 22 109 58 24 16 53 30 66 30 23 0
135 -47 135 -57 0 -3 -23 -26 -50 -52 -28 -26 -50 -53 -50 -60 0 -17 -5 -18
60 8 39 15 88 23 172 28 105 6 123 10 180 39 35 17 131 86 213 151 83 66 154
119 158 120 4 0 -12 -29 -37 -64 -26 -35 -46 -74 -46 -88 0 -26 55 -108 72
-108 16 0 398 376 436 429 18 25 40 70 48 101 23 82 34 107 59 134 12 14 33
44 46 68 13 23 35 48 49 55 31 15 50 41 50 67 0 12 37 54 95 108 164 155 251
311 262 477 6 84 6 84 56 140 28 31 109 115 181 188 124 126 176 191 176 222
0 8 35 73 79 145 43 72 116 205 161 296 45 91 100 185 121 209 26 29 39 53 39
73 0 46 81 224 202 446 95 173 110 207 104 234 -5 26 -1 36 29 65 26 25 39 32
48 25 9 -8 29 2 72 35 100 76 167 102 276 110 123 8 184 -6 275 -63 96 -60
294 -271 294 -314 0 -62 35 -116 166 -254 83 -86 101 -114 257 -390 183 -322
276 -469 301 -479 8 -3 40 -55 70 -114 178 -354 503 -705 803 -865 43 -23 90
-52 106 -64 16 -14 143 -61 320 -118 468 -152 668 -204 927 -241 63 -8 156
-28 205 -43 78 -23 106 -26 212 -25 82 2 133 7 158 17 19 8 42 13 51 9 25 -9
52 -76 59 -144 12 -116 43 -277 60 -312 22 -47 207 -226 325 -314 100 -74 500
-337 505 -331 13 16 25 53 25 80 0 28 6 37 35 52 19 11 35 22 35 25 0 4 -25
31 -56 61 -68 66 -154 167 -154 181 0 13 96 -37 259 -134 166 -99 259 -142
358 -168 83 -21 231 -26 264 -9 18 10 18 12 3 43 -9 18 -35 53 -56 80 -23 27
-38 53 -35 62 8 20 81 55 115 55 16 0 35 -7 42 -15 17 -21 69 -19 108 5 37 23
40 40 11 66 -12 10 -49 51 -82 89 -33 39 -66 73 -73 78 -7 4 -79 14 -160 22
-81 8 -149 16 -151 19 -11 10 275 38 356 34 l91 -4 0 25 c-1 31 -25 150 -33
157 -3 3 -69 -11 -147 -30 -148 -38 -258 -46 -330 -26 -36 10 -109 64 -100 73
3 3 34 -1 70 -10 90 -21 320 -8 320 19 0 21 -92 150 -154 216 -74 78 -168 146
-300 217 -87 47 -88 48 -83 81 3 18 14 52 25 76 18 41 29 49 225 161 276 156
336 196 442 298 50 47 124 114 165 148 93 78 171 167 259 296 198 290 318 616
375 1020 9 61 23 132 31 159 19 62 19 138 1 202 -8 27 -20 87 -26 134 -41 318
-126 645 -236 908 -52 124 -95 203 -171 315 -48 69 -57 89 -62 141 -4 34 -10
67 -15 74 -4 7 -30 24 -57 37 -38 20 -59 41 -96 98 -106 160 -333 420 -480
549 -52 46 -138 114 -191 152 -108 78 -119 89 -162 163 -16 29 -40 59 -52 67
-14 8 -62 16 -123 19 -87 4 -117 11 -230 51 -71 26 -209 74 -305 107 -96 33
-233 88 -305 123 -71 35 -160 78 -197 95 -71 33 -59 20 -220 245 -52 72 -103
179 -135 283 -23 75 -27 104 -26 204 1 148 15 216 64 307 21 39 44 90 50 112
7 21 25 51 40 66 28 27 29 27 29 5 0 -55 34 -182 68 -251 53 -110 186 -241
302 -297 47 -23 103 -45 125 -49 l40 -7 -48 54 c-170 193 -255 334 -283 471
-19 93 -8 161 36 231 22 35 43 52 96 78 63 31 76 34 159 33 148 -1 205 -31
385 -203 179 -171 320 -197 650 -116 302 73 524 82 767 31 177 -38 255 -34
448 18 32 9 74 16 92 16 29 0 33 -3 39 -37 19 -116 32 -123 114 -66 96 67 147
184 120 270 -40 123 -134 165 -309 137 -147 -23 -217 -5 -333 87 -97 76 -152
81 -453 38 -182 -26 -259 -22 -341 15 -53 24 -154 114 -154 136 0 4 39 -1 88
-11 263 -56 354 -49 550 45 163 77 239 99 347 100 76 1 85 -1 175 -46 122 -61
152 -65 265 -37 106 26 196 28 246 7 20 -9 65 -37 100 -62 35 -25 67 -46 73
-46 5 0 7 42 3 108 -11 175 -46 273 -127 352 -99 96 -214 109 -564 64 -215
-28 -323 -28 -388 -1 -48 20 -103 71 -200 186 -165 195 -234 254 -378 326
-107 54 -186 82 -324 116 -140 34 -136 33 -136 15 0 -30 104 -106 242 -177
218 -111 298 -203 298 -339 0 -141 -108 -256 -272 -291 -96 -21 -185 -6 -431
70 -253 79 -329 112 -375 165 -53 61 -66 150 -29 201 13 16 15 15 30 -18 9
-19 17 -56 17 -82 0 -84 25 -99 319 -180 53 -14 131 -46 180 -73 85 -46 87
-47 176 -46 102 0 194 21 160 35 -11 4 -56 23 -100 40 -47 19 -97 49 -121 71
-53 49 -69 53 -262 73 -174 18 -216 27 -253 57 -20 17 -21 19 -4 13 74 -24
155 -35 266 -35 69 0 129 3 132 6 10 11 -32 63 -72 89 -20 13 -65 32 -101 41
-95 23 -145 56 -180 117 -37 64 -74 177 -95 293 -9 49 -22 94 -28 100 -7 7
-86 40 -177 74 -404 153 -616 299 -900 621 -71 80 -136 152 -146 160 -16 13
-17 11 -11 -26z"/>
<path d="M10040 10074 c0 -5 16 -18 35 -28 46 -25 112 -97 132 -144 8 -20 35
-104 58 -187 54 -190 78 -253 115 -304 50 -69 67 -75 219 -82 266 -12 426 -81
492 -212 12 -23 31 -55 42 -71 l21 -30 13 30 c6 16 12 58 12 94 1 133 -53 195
-260 299 -77 39 -160 85 -185 102 -80 55 -150 135 -196 224 -24 47 -47 85 -51
85 -5 0 -6 -55 -2 -122 l7 -123 -19 25 c-28 35 -49 78 -83 170 -16 43 -38 97
-49 118 -25 50 -91 108 -148 133 -50 21 -153 37 -153 23z"/>
<path d="M8405 9276 c-106 -34 -146 -75 -234 -243 -121 -232 -220 -303 -423
-303 -179 0 -285 53 -378 189 -21 30 -24 31 -33 15 -18 -32 -12 -145 10 -194
31 -69 63 -101 172 -171 56 -35 101 -69 101 -76 0 -13 -49 -51 -201 -155 -102
-71 -199 -167 -242 -240 -43 -74 -74 -185 -92 -328 -34 -287 -61 -382 -122
-442 -21 -21 -58 -44 -82 -53 -56 -20 -192 -20 -306 0 -48 9 -90 14 -92 11
-10 -10 116 -119 166 -143 118 -58 311 -38 418 44 67 51 77 64 138 186 31 59
58 107 62 107 4 0 35 -29 69 -65 58 -61 104 -86 90 -49 -3 8 -15 61 -27 117
-29 139 -23 249 17 330 39 82 118 156 226 213 50 27 100 61 113 78 13 17 64
108 113 203 116 221 173 303 302 434 140 142 368 307 558 403 29 14 52 32 52
40 0 21 -112 75 -187 91 -82 18 -135 18 -188 1z"/>
<path d="M2461 8416 c2 -2 58 -25 124 -51 213 -83 344 -165 462 -287 157 -165
238 -355 328 -770 25 -115 51 -223 59 -242 19 -46 80 -112 133 -143 67 -39 73
-32 73 98 0 428 -272 962 -610 1198 -138 97 -304 170 -431 191 -64 10 -146 14
-138 6z"/>
<path d="M2520 8243 c90 -76 180 -174 220 -242 60 -100 102 -215 181 -489 121
-421 188 -552 343 -668 104 -78 171 -106 518 -209 236 -70 313 -97 413 -147
202 -101 348 -247 457 -458 25 -47 52 -105 62 -129 10 -25 21 -40 26 -35 5 5
13 61 20 124 28 296 -54 510 -243 627 -140 88 -258 121 -612 174 -110 16 -222
34 -250 40 -120 28 -237 112 -294 212 -16 29 -72 172 -124 318 -107 299 -149
402 -209 504 -80 135 -162 228 -272 304 -59 41 -182 93 -246 105 l-35 7 45
-38z"/>
<path d="M1890 8241 c0 -4 28 -27 63 -51 186 -131 257 -254 257 -444 0 -83 -7
-124 -55 -308 -89 -349 -104 -492 -65 -642 62 -242 190 -347 691 -567 352
-154 493 -242 595 -372 92 -118 133 -216 170 -409 9 -49 20 -88 24 -88 13 0
20 134 10 205 -36 249 -177 460 -440 656 -41 30 -201 136 -354 235 -313 200
-400 273 -452 379 -27 56 -29 68 -28 170 1 106 3 117 61 300 78 243 87 287 87
415 0 86 -5 116 -24 165 -58 150 -184 263 -355 318 -68 23 -185 46 -185 38z"/>
<path d="M5284 7597 c-62 -112 -72 -137 -83 -207 -17 -100 16 -276 71 -384 58
-115 130 -194 298 -329 160 -129 237 -206 293 -292 105 -163 104 -297 -2 -359
-32 -18 -34 -18 -46 -2 -13 18 -32 83 -78 280 -61 257 -165 372 -371 411 -97
19 -193 19 -321 0 -212 -31 -224 -39 -81 -49 51 -3 117 -13 147 -22 110 -33
181 -147 182 -294 1 -121 -44 -185 -192 -273 -126 -75 -195 -153 -245 -277
-28 -69 -32 -90 -15 -90 6 0 72 23 147 51 510 190 732 209 1057 90 17 -6 46
-13 66 -16 22 -3 49 -18 70 -38 19 -19 98 -66 176 -106 130 -67 152 -82 275
-195 147 -135 264 -258 451 -477 201 -234 260 -279 368 -279 76 0 104 -18 163
-107 24 -35 47 -60 50 -54 17 27 18 112 2 154 -30 79 -96 118 -231 136 -109
15 -130 32 -130 102 0 30 13 108 29 174 41 170 47 366 16 515 -42 205 -136
396 -275 559 -88 103 -108 146 -107 231 0 38 3 83 7 102 l7 33 -36 -35 c-62
-59 -79 -107 -74 -208 4 -73 11 -104 46 -191 23 -57 42 -107 42 -111 0 -4 -52
3 -117 16 -64 13 -118 23 -119 21 -2 -2 48 -45 112 -96 126 -102 177 -162 223
-261 44 -95 58 -175 42 -242 -15 -70 -35 -98 -69 -98 -51 0 -95 44 -197 195
-113 168 -167 232 -229 271 -73 46 -79 64 -71 213 8 132 1 171 -31 171 -17 0
-70 -80 -79 -121 -4 -15 -22 -42 -41 -59 -28 -24 -43 -30 -83 -30 -35 0 -53 5
-66 20 -29 32 -81 43 -167 37 -43 -4 -78 -3 -78 1 0 4 9 39 20 77 27 91 36
224 21 297 -30 142 -116 249 -316 393 -234 168 -297 231 -350 347 -44 97 -50
268 -11 378 9 25 16 56 16 71 0 23 -16 49 -29 49 -4 0 -29 -42 -57 -93z"/>
<path d="M7637 6983 c-8 -16 -22 -53 -32 -83 -24 -74 -42 -109 -73 -143 -24
-25 -43 -33 -124 -51 -36 -8 -38 -47 -4 -97 34 -50 78 -68 191 -79 54 -5 100
-11 103 -15 6 -6 -4 -39 -82 -260 -56 -161 -70 -258 -55 -396 12 -124 38 -211
94 -314 76 -142 71 -180 -38 -292 -62 -64 -68 -73 -46 -73 38 0 122 44 163 84
77 78 110 189 105 350 -2 53 -1 95 3 94 18 -7 174 -137 232 -193 76 -74 107
-131 140 -254 34 -128 42 -138 51 -67 18 145 -15 273 -109 425 -74 118 -93
166 -102 257 -5 49 -3 75 11 109 9 25 14 56 11 69 -3 12 -52 93 -109 178 -58
86 -119 191 -136 233 -18 42 -56 170 -86 284 -70 271 -79 291 -108 234z"/>
<path d="M953 6244 c3 -10 16 -52 28 -92 17 -58 21 -91 17 -157 -2 -48 -10
-90 -17 -99 -23 -28 -94 -20 -202 24 -55 22 -110 40 -123 40 -46 0 -76 -67
-76 -171 0 -101 41 -573 51 -585 5 -7 31 -17 57 -24 68 -17 108 -51 129 -110
27 -76 37 -67 48 46 11 105 19 110 53 34 16 -36 41 -101 56 -146 36 -111 73
-166 128 -193 176 -85 559 94 694 326 36 60 70 156 78 218 6 47 5 49 -9 30 -9
-11 -41 -69 -72 -130 -31 -60 -67 -125 -81 -143 -57 -75 -169 -111 -287 -92
-117 19 -160 50 -216 159 -52 100 -96 124 -263 146 l-48 7 80 81 c131 135 206
269 227 403 9 56 -8 141 -41 210 -26 56 -130 176 -187 216 -28 20 -29 20 -24
2z"/>
<path d="M8542 5535 c-66 -66 -102 -110 -100 -121 2 -13 35 -26 133 -51 135
-34 252 -84 262 -110 7 -17 -39 -112 -112 -233 -104 -174 -113 -397 -22 -549
30 -50 119 -141 137 -141 5 0 -10 44 -32 98 -38 87 -42 106 -42 182 -1 77 2
91 31 145 17 33 39 69 48 80 l17 20 -7 -20 c-58 -178 -38 -300 72 -428 68 -79
77 -116 48 -211 -8 -27 -13 -51 -11 -53 5 -6 49 54 72 97 13 25 18 56 18 110
-1 65 -7 90 -44 185 -42 105 -44 115 -45 215 0 110 20 192 50 204 24 9 119
-11 190 -39 88 -35 163 -42 245 -21 35 9 66 18 68 21 9 9 -21 76 -47 102 -15
15 -65 56 -112 90 -46 34 -151 121 -234 194 -82 72 -186 159 -230 193 -81 62
-221 147 -240 145 -5 0 -56 -47 -113 -104z"/>
<path d="M7800 5091 c-17 -131 -10 -216 25 -287 32 -64 82 -108 216 -185 60
-35 86 -55 77 -60 -7 -4 -43 -15 -80 -25 -38 -9 -68 -19 -68 -23 0 -5 19 -14
43 -21 63 -19 129 -55 160 -88 52 -54 56 -146 8 -171 -45 -24 -96 -13 -213 48
-62 32 -144 68 -182 80 -84 26 -200 38 -210 22 -15 -23 146 -233 265 -346 356
-335 835 -577 1194 -601 l90 -7 -61 56 c-34 31 -64 66 -67 77 -7 28 32 73 94
106 27 15 49 32 49 37 0 19 -69 74 -102 81 -31 6 -135 -10 -151 -24 -4 -4 -16
-41 -26 -84 -10 -42 -21 -79 -24 -82 -7 -7 -99 27 -160 57 -71 36 -115 77
-143 134 -25 52 -26 61 -20 153 18 285 19 339 2 416 -38 169 -121 273 -291
365 -133 72 -232 140 -277 188 -30 35 -78 133 -78 163 0 13 -48 120 -53 120
-3 0 -10 -44 -17 -99z"/>
<path d="M2474 4631 c-28 -9 -70 -29 -95 -43 -47 -28 -146 -124 -138 -133 3
-3 39 4 80 14 334 85 544 25 720 -208 27 -35 47 -66 45 -68 -2 -2 -36 2 -77 8
-104 16 -222 8 -287 -21 -92 -40 -232 -218 -232 -296 0 -22 3 -21 73 22 121
75 208 89 291 48 69 -36 92 -69 137 -202 53 -158 85 -193 230 -261 142 -66
170 -112 176 -291 3 -63 1 -148 -4 -187 -5 -40 -7 -73 -4 -73 11 0 73 102 106
174 36 78 62 189 95 401 11 77 33 201 47 275 30 164 27 218 -18 298 -30 54
-31 60 -26 137 3 44 9 90 13 103 5 19 3 22 -22 22 -40 0 -90 -33 -110 -72 -14
-27 -16 -50 -11 -140 5 -82 4 -108 -6 -108 -6 0 -40 13 -75 30 -78 37 -162
115 -258 242 -171 225 -233 282 -351 324 -85 30 -220 32 -299 5z"/>
<path d="M9590 4601 c13 -70 45 -108 124 -145 41 -19 85 -49 99 -66 45 -53 59
-141 33 -204 -27 -65 -78 -60 -251 24 -147 72 -192 84 -298 78 -100 -6 -162
-34 -226 -103 -58 -63 -81 -116 -81 -193 0 -91 33 -143 112 -177 64 -26 72
-21 41 27 -49 73 -27 170 43 190 48 14 147 -1 213 -32 110 -52 210 -174 211
-256 0 -49 -26 -110 -75 -179 -25 -35 -45 -68 -45 -74 0 -15 102 32 178 81 34
22 96 77 138 121 61 65 85 101 129 191 66 137 79 193 73 305 -4 69 -15 116
-53 226 -26 77 -49 142 -51 144 -2 2 -46 3 -98 2 -104 -2 -145 10 -185 53 -33
35 -40 33 -31 -13z"/>
<path d="M1730 4494 c84 -110 103 -179 76 -285 -30 -117 -107 -214 -209 -263
-58 -29 -147 -45 -147 -28 0 6 9 48 20 94 24 100 26 234 5 306 -28 93 -116
183 -210 215 l-47 16 37 -40 c44 -49 55 -76 55 -140 0 -36 -5 -54 -21 -70 -36
-36 -46 -29 -199 138 -64 70 -118 93 -221 93 -63 0 -79 -3 -79 -15 0 -24 119
-352 176 -485 30 -68 90 -191 134 -272 44 -82 92 -176 106 -210 14 -35 30 -66
35 -69 5 -3 40 -2 77 3 106 13 137 4 204 -60 l58 -55 0 45 c0 83 -42 163 -102
194 l-31 16 109 37 c122 41 188 75 250 133 93 85 134 187 134 328 0 96 -17
164 -62 254 -45 88 -143 186 -188 186 -6 0 12 -30 40 -66z"/>
<path d="M2103 3933 c3 -71 9 -93 42 -160 47 -97 170 -224 293 -303 45 -29 81
-55 79 -56 -2 -2 -19 1 -38 6 -50 15 -196 12 -258 -5 -30 -8 -79 -24 -110 -37
-49 -20 -52 -23 -30 -28 13 -4 58 -10 99 -14 104 -10 172 -43 207 -103 46 -79
33 -208 -33 -321 -35 -60 -75 -82 -149 -82 -82 0 -121 13 -200 65 -97 64 -148
78 -256 73 -49 -2 -92 -7 -95 -11 -18 -17 53 -111 133 -178 56 -47 215 -127
326 -163 152 -50 229 -61 417 -60 152 0 189 3 285 26 136 32 279 84 311 112
17 15 30 46 44 104 25 98 34 122 77 186 54 79 45 88 -60 61 -77 -20 -118 -42
-213 -114 -45 -34 -90 -61 -102 -61 -43 0 -67 74 -40 123 6 12 31 47 56 77 90
110 101 185 47 297 -49 98 -112 135 -329 194 -268 71 -407 186 -487 404 l-19
50 3 -82z"/>
</g>
</svg>
