<?xml version="1.0" standalone="no"?>
<!DOCTYPE svg PUBLIC "-//W3C//DTD SVG 20010904//EN"
 "http://www.w3.org/TR/2001/REC-SVG-20010904/DTD/svg10.dtd">
<svg version="1.0" xmlns="http://www.w3.org/2000/svg"
 width="1280.000000pt" height="1144.000000pt" viewBox="0 0 1280.000000 1144.000000"
 preserveAspectRatio="xMidYMid meet">
<metadata>
Created by potrace 1.15, written by Peter Selinger 2001-2017
</metadata>
<g transform="translate(0.000000,1144.000000) scale(0.100000,-0.100000)"
fill="#000000" stroke="none">
<path d="M11195 11161 c-145 -40 -913 -298 -1230 -413 -379 -137 -492 -182
-520 -208 -11 -9 -32 -20 -47 -24 -17 -4 -34 -18 -43 -36 -9 -17 -21 -30 -28
-30 -6 0 -77 -134 -157 -297 -172 -353 -275 -520 -535 -873 -102 -139 -185
-256 -185 -260 0 -4 -12 -34 -26 -65 l-25 -58 -27 38 c-41 58 -113 86 -239 93
-111 5 -190 -6 -281 -41 l-56 -21 90 -13 c219 -31 285 -59 299 -125 6 -27 3
-35 -17 -52 -37 -31 -39 -49 -17 -115 18 -52 25 -62 55 -73 22 -8 34 -18 34
-31 0 -10 18 -39 40 -64 61 -70 114 -177 179 -365 57 -165 181 -658 181 -719
0 -79 -53 -290 -102 -407 -46 -110 -58 -129 -106 -172 -43 -38 -76 -56 -160
-86 l-107 -39 -245 -2 c-327 -4 -425 -20 -608 -98 l-134 -57 -71 31 c-86 37
-203 63 -274 62 -51 -1 -54 0 -130 67 -85 75 -256 304 -360 481 -31 53 -74
128 -97 166 -22 39 -46 74 -53 78 -7 4 -13 19 -13 32 0 27 -16 42 -23 23 -3
-9 -11 -5 -22 11 -10 13 -31 35 -46 49 -35 31 -32 53 23 135 21 32 38 61 38
63 0 3 -36 -14 -81 -38 l-81 -43 -24 28 c-13 16 -24 32 -24 36 0 4 23 38 50
74 28 36 50 69 50 72 0 8 -70 -23 -122 -54 -44 -27 -47 -28 -62 -12 -14 16
-10 22 49 81 36 36 65 68 65 72 0 9 -90 -17 -149 -43 l-45 -20 -30 31 c-17 16
-25 30 -19 30 7 0 17 9 23 19 9 18 8 19 -22 10 -18 -5 -34 -9 -36 -9 -2 0 13
20 34 45 30 37 33 45 18 45 -11 0 -37 -9 -60 -19 -38 -17 -41 -17 -51 -2 -9
14 -4 24 23 51 19 18 33 35 31 37 -2 2 -23 -4 -47 -12 -60 -21 -67 -19 -38 13
40 42 66 87 48 80 -8 -3 -39 -13 -69 -23 -52 -17 -55 -17 -68 1 -11 15 -10 21
5 38 52 61 53 60 -10 53 -32 -3 -58 -3 -58 1 0 4 23 22 50 40 35 24 55 32 70
27 20 -6 21 -5 10 15 -7 12 -21 25 -31 27 -10 3 -19 13 -19 22 0 15 31 19 107
12 6 -1 21 -17 32 -37 21 -35 24 -36 65 -31 30 4 49 2 65 -9 31 -22 36 -12 10
19 -14 18 -30 27 -49 27 -24 0 -34 8 -52 40 -24 42 -74 70 -126 70 -19 0 -39
11 -58 31 -16 17 -50 45 -77 61 -26 17 -47 37 -47 45 0 7 -6 13 -14 13 -10 0
-17 16 -22 45 -6 40 -9 45 -32 45 -21 0 -87 18 -101 27 -2 2 4 12 14 23 18 20
17 20 -7 20 -14 0 -36 -9 -50 -19 -32 -25 -70 -24 -62 1 7 24 -16 24 -47 0
-39 -30 -57 -33 -92 -12 -17 11 -39 20 -48 20 -8 0 -53 41 -100 92 -118 129
-139 157 -139 187 0 38 -17 51 -69 51 -25 0 -92 12 -149 26 -57 14 -113 23
-125 20 -31 -7 -121 -101 -112 -116 4 -6 16 -9 28 -6 11 3 28 1 38 -4 16 -9
16 -13 2 -61 -11 -37 -13 -60 -6 -83 l10 -31 15 35 c9 19 23 44 32 55 16 19
17 19 15 -10 -1 -16 0 -41 1 -55 1 -24 2 -24 18 8 20 40 47 39 47 -1 -1 -23 3
-27 20 -23 34 9 50 -9 46 -53 -3 -45 7 -52 27 -20 11 16 16 18 28 9 8 -7 14
-23 14 -36 0 -21 2 -23 19 -12 25 15 51 -4 44 -31 -4 -16 0 -18 23 -13 28 5
29 -1 9 -50 -4 -11 -3 -18 4 -18 6 0 11 5 11 10 0 17 18 11 22 -7 2 -13 13
-18 43 -18 28 0 40 -4 41 -15 4 -59 2 -57 41 -56 35 1 38 -2 41 -28 2 -15 1
-39 -2 -52 -6 -23 -8 -23 -34 -11 -27 14 -95 14 -143 0 -14 -5 -46 -33 -71
-63 -24 -30 -52 -56 -61 -58 -10 -2 -41 11 -70 29 -61 38 -151 67 -193 63 -16
-2 -66 -21 -110 -44 -92 -45 -100 -47 -126 -23 -10 9 -18 12 -18 6 0 -17 35
-43 61 -44 47 -3 145 13 182 28 36 15 40 15 85 -6 67 -32 83 -46 76 -65 -8
-21 -24 -21 -24 2 0 14 -4 13 -19 -7 l-18 -24 -10 29 -10 29 -6 -26 c-7 -28
-44 -46 -61 -29 -6 6 -14 3 -22 -8 -11 -14 -13 -14 -14 -2 0 11 -4 10 -16 -5
-13 -17 -16 -18 -24 -5 -6 8 -8 26 -5 38 8 31 -10 20 -36 -22 l-19 -31 0 40
-1 40 -22 -26 c-12 -14 -29 -29 -39 -32 -9 -3 -19 -19 -23 -36 -4 -19 -18 -37
-35 -48 -25 -14 -57 -69 -47 -79 2 -2 21 1 42 7 24 7 70 9 116 5 71 -7 82 -5
165 27 49 19 117 38 151 42 65 7 271 -10 312 -27 14 -5 54 -9 89 -9 82 0 102
-8 154 -64 23 -25 48 -45 55 -45 7 0 26 -18 44 -40 17 -21 35 -38 38 -37 15 4
70 -52 90 -92 12 -22 25 -41 30 -41 4 0 20 -27 35 -60 15 -33 31 -58 36 -55 4
3 22 -17 39 -45 17 -27 35 -50 41 -50 5 0 15 -19 21 -42 7 -24 20 -50 29 -58
9 -8 25 -34 35 -58 10 -24 26 -47 35 -52 9 -5 29 -41 44 -79 19 -48 33 -71 44
-72 26 0 85 -96 79 -128 -8 -39 35 -208 96 -376 102 -281 132 -415 121 -547
-6 -71 -12 -90 -43 -138 -56 -89 -131 -304 -131 -381 0 -15 -12 -37 -31 -55
-17 -16 -42 -48 -55 -70 -20 -34 -33 -44 -67 -52 -28 -8 -57 -26 -87 -57 -24
-25 -53 -45 -65 -45 -12 0 -36 -11 -54 -25 -24 -17 -52 -26 -102 -31 -39 -4
-74 -13 -80 -21 -18 -21 -20 -162 -3 -196 14 -26 13 -28 -11 -37 -67 -25 -255
-8 -490 46 -178 41 -223 62 -550 256 -88 52 -241 139 -340 193 -257 140 -262
143 -299 176 -19 16 -40 29 -49 29 -16 0 -27 20 -27 51 0 21 -82 79 -112 79
-9 0 -37 -9 -61 -21 l-43 -21 -58 28 c-65 31 -94 67 -122 152 -14 45 -19 51
-32 40 -26 -22 -43 -76 -37 -116 9 -49 25 -93 43 -115 8 -9 13 -19 10 -22 -3
-3 -45 -10 -94 -15 -49 -6 -228 -28 -399 -50 -170 -22 -398 -47 -505 -55 -243
-18 -553 -60 -558 -74 -2 -6 -15 -11 -29 -11 -30 0 -91 -36 -176 -105 -121
-97 -566 -506 -802 -738 l-241 -235 -51 -123 c-72 -176 -84 -219 -86 -311 -2
-94 17 -121 28 -39 4 27 12 56 18 64 7 8 71 26 152 41 l140 27 150 -15 c134
-13 164 -20 273 -60 155 -58 145 -52 282 -158 88 -68 135 -114 202 -197 149
-187 301 -410 321 -472 18 -60 47 -98 47 -63 -1 11 -7 47 -14 82 -7 34 -11 62
-7 62 4 0 72 11 151 25 80 15 268 44 419 65 247 36 294 40 474 40 181 0 215
-3 366 -31 154 -29 179 -37 346 -110 l181 -79 188 -163 c130 -113 195 -176
212 -207 25 -46 75 -86 126 -100 24 -8 21 -2 -27 42 -99 90 -100 78 22 273
l106 170 147 127 c138 119 156 131 296 198 l149 71 145 7 145 7 175 -57 c114
-38 239 -88 356 -145 l182 -88 56 -100 c31 -55 56 -94 56 -86 0 8 -16 61 -36
118 l-36 104 57 177 c31 97 90 253 131 346 49 111 88 220 115 319 55 203 129
352 249 499 l89 108 34 -40 c19 -23 66 -64 104 -93 38 -29 98 -78 134 -110 54
-50 81 -66 174 -101 61 -23 180 -61 265 -85 206 -56 207 -57 140 -65 -37 -5
-73 -18 -110 -41 -30 -19 -61 -35 -68 -35 -8 0 -38 -14 -66 -31 -171 -106
-248 -215 -276 -393 -6 -38 -15 -77 -20 -87 -14 -26 -12 -105 4 -142 18 -44
108 -126 186 -169 98 -54 152 -63 305 -49 217 19 414 24 550 13 l130 -11 145
-148 c80 -81 163 -175 185 -207 57 -88 212 -264 249 -283 17 -9 49 -28 71 -43
53 -36 136 -52 184 -36 33 12 38 11 79 -21 52 -40 83 -42 154 -9 50 22 97 68
140 136 21 32 39 196 25 230 -5 14 -9 43 -8 65 1 25 -6 52 -19 73 -24 38 -44
44 -30 7 6 -16 5 -36 -4 -61 l-12 -37 -35 38 c-112 125 -155 158 -110 84 26
-42 26 -59 2 -59 -29 0 -34 -15 -21 -75 6 -30 9 -59 6 -64 -3 -4 -50 4 -105
19 -55 15 -123 31 -151 35 -36 5 -62 16 -84 36 l-31 28 33 30 c35 33 77 40
114 20 34 -18 32 -1 -5 36 -23 23 -44 35 -63 35 -16 0 -39 10 -53 24 -27 26
-87 36 -128 22 -18 -6 -29 1 -60 34 -50 56 -333 476 -333 495 0 8 19 24 42 36
72 37 198 149 219 193 10 23 27 52 38 66 l19 24 35 -18 c18 -11 61 -42 95 -70
33 -28 109 -92 169 -141 228 -190 364 -347 732 -844 197 -267 255 -358 396
-625 37 -71 94 -174 127 -230 34 -57 82 -160 110 -236 28 -74 72 -171 98 -215
119 -197 360 -444 701 -717 234 -188 695 -569 823 -681 89 -78 113 -94 127
-86 10 5 21 19 25 31 7 24 -64 96 -596 600 -297 282 -400 387 -534 543 -111
130 -135 163 -219 302 -64 105 -84 165 -127 386 -22 110 -42 180 -67 235 -19
42 -91 212 -160 377 -69 165 -142 327 -164 361 -25 38 -37 67 -33 78 4 11 2
15 -8 11 -9 -4 -36 33 -87 119 -72 124 -72 125 -57 155 20 38 20 55 1 71 -34
29 0 35 77 14 12 -4 22 5 33 32 23 55 19 89 -11 109 -20 13 -23 19 -13 25 9 6
-4 16 -42 33 -61 27 -227 82 -277 92 -47 10 -67 44 -52 90 14 44 7 55 -20 30
-11 -10 -22 -16 -23 -14 -2 2 -36 43 -75 90 -42 51 -72 96 -72 109 0 15 -5 20
-14 17 -17 -7 -56 33 -56 56 0 9 -6 17 -13 17 -7 0 -39 27 -71 59 -41 41 -57
64 -52 76 4 12 2 15 -12 11 -12 -4 -36 13 -81 58 l-64 65 11 57 c7 32 10 60 7
62 -3 3 -21 -9 -40 -28 l-34 -33 -63 55 c-63 55 -63 56 -60 104 l3 49 -30 -34
c-20 -23 -33 -30 -43 -25 -8 5 -53 51 -101 102 -64 68 -87 99 -88 120 0 15 -4
36 -8 47 -8 19 -8 19 -22 -2 l-14 -23 -30 29 c-33 31 -71 52 -183 102 -54 24
-74 38 -78 56 -7 25 -14 29 -31 12 -8 -8 -17 -7 -34 2 -13 7 -60 27 -103 45
-53 22 -115 60 -187 115 -98 75 -107 85 -113 122 -7 39 -7 39 -27 22 -19 -18
-20 -18 -55 16 l-35 34 46 6 c37 4 58 0 95 -18 37 -18 54 -21 73 -14 36 14 42
30 14 40 -50 19 -36 29 51 35 240 18 439 2 759 -59 363 -69 570 -117 791 -183
l224 -66 70 -104 c39 -56 73 -100 76 -97 3 3 -17 47 -43 99 l-49 95 98 248
c85 214 117 280 232 484 l135 235 167 161 168 160 222 118 223 117 282 77 282
78 295 12 295 12 36 -41 c20 -23 49 -69 65 -102 25 -52 29 -57 36 -37 12 32
-24 121 -73 178 -28 34 -73 123 -150 297 l-111 248 -36 186 -35 185 22 169
c17 125 35 212 72 334 42 142 60 186 136 326 74 134 176 285 308 454 9 11 32
1 113 -47 56 -34 105 -61 107 -61 3 0 -2 12 -12 27 -10 14 -54 50 -98 79 -113
74 -390 357 -528 540 -88 115 -121 171 -189 310 l-81 169 -16 160 c-15 150
-15 169 1 302 l18 142 76 121 77 121 36 -5 c20 -3 68 -8 106 -11 70 -6 70 -6
48 13 -14 12 -64 28 -135 42 -99 20 -151 23 -408 26 -267 4 -302 2 -365 -15z
m-5717 -2758 c2 -16 -2 -22 -15 -22 -10 1 -29 -3 -42 -7 -21 -6 -23 -5 -16 17
9 29 24 40 50 37 12 -2 21 -12 23 -25z m-684 -38 c9 -13 16 -30 16 -37 0 -9
-3 -9 -10 2 -9 13 -12 13 -24 -3 -11 -15 -18 -16 -34 -8 -11 6 -22 16 -25 23
-3 9 -9 7 -21 -7 -8 -11 -16 -15 -16 -8 0 16 58 63 80 63 10 0 25 -11 34 -25z
m563 -3172 c-3 -10 -5 -2 -5 17 0 19 2 27 5 18 2 -10 2 -26 0 -35z m2662
-1313 c-8 -5 -47 -12 -85 -15 -65 -6 -67 -5 -44 9 15 9 49 15 85 15 41 0 55
-2 44 -9z"/>
</g>
</svg>
