<?xml version="1.0" standalone="no"?>
<!DOCTYPE svg PUBLIC "-//W3C//DTD SVG 20010904//EN"
 "http://www.w3.org/TR/2001/REC-SVG-20010904/DTD/svg10.dtd">
<svg version="1.0" xmlns="http://www.w3.org/2000/svg"
 width="1244.000000pt" height="1280.000000pt" viewBox="0 0 1244.000000 1280.000000"
 preserveAspectRatio="xMidYMid meet">
<metadata>
Created by potrace 1.15, written by Peter Selinger 2001-2017
</metadata>
<g transform="translate(0.000000,1280.000000) scale(0.100000,-0.100000)"
fill="#000000" stroke="none">
<path d="M5767 12483 c-13 -13 -6 -21 38 -48 25 -14 59 -45 76 -68 17 -23 43
-50 59 -60 42 -26 44 -46 17 -139 -14 -46 -25 -94 -25 -107 -1 -13 -17 -63
-36 -111 -20 -48 -36 -102 -36 -119 0 -17 -6 -46 -13 -64 -15 -34 -32 -111
-67 -291 -19 -100 -69 -237 -131 -358 -112 -219 -349 -454 -579 -574 -158 -82
-376 -171 -440 -179 -30 -4 -83 -18 -118 -31 -35 -13 -103 -30 -150 -38 -48
-8 -105 -21 -127 -29 -22 -8 -85 -31 -140 -51 -98 -37 -205 -57 -315 -60 -30
-1 -80 -5 -110 -9 -113 -15 -172 -15 -425 -6 -365 13 -416 20 -593 84 -79 28
-250 16 -239 -18 2 -7 30 -16 63 -22 33 -5 77 -21 98 -34 33 -21 58 -26 156
-33 65 -4 130 -12 145 -18 15 -6 30 -9 32 -6 21 21 329 -139 403 -209 19 -18
58 -48 85 -67 65 -43 131 -114 189 -207 26 -40 64 -95 85 -121 66 -84 130
-205 145 -274 7 -35 30 -94 50 -130 21 -37 44 -90 52 -119 9 -28 35 -92 59
-142 23 -49 47 -108 53 -130 6 -22 20 -71 31 -110 18 -63 20 -91 17 -270 -4
-192 -16 -345 -36 -430 -18 -81 -43 -171 -62 -225 -11 -30 -28 -82 -38 -115
-18 -62 -36 -110 -96 -250 -23 -53 -34 -94 -33 -120 2 -39 -29 -132 -72 -218
-18 -34 -18 -40 -4 -67 24 -47 19 -66 -32 -107 -31 -26 -55 -57 -73 -98 -33
-71 -86 -161 -124 -207 -15 -18 -61 -74 -102 -125 -40 -51 -82 -97 -93 -102
-10 -6 -43 -14 -74 -19 -52 -8 -131 -54 -167 -97 -11 -13 -8 -15 16 -15 16 1
40 7 54 15 14 8 41 14 60 15 19 0 70 17 115 39 44 22 105 47 135 57 30 9 60
21 66 26 12 9 272 91 454 143 119 34 274 49 310 30 14 -7 62 -22 106 -33 83
-20 114 -33 191 -82 26 -17 55 -30 64 -30 10 0 28 -14 41 -31 13 -17 44 -54
69 -82 25 -29 62 -78 82 -109 20 -31 58 -81 86 -111 29 -33 68 -93 94 -149 25
-51 66 -121 91 -156 40 -54 147 -261 207 -401 47 -107 75 -338 49 -405 -6 -18
-5 -40 6 -77 13 -42 14 -68 5 -145 -5 -52 -8 -115 -6 -141 5 -51 -40 -454 -54
-488 -7 -18 -10 -16 -28 20 -12 22 -30 48 -41 58 -20 18 -20 18 -26 0 -3 -10
0 -43 8 -73 22 -87 28 -130 18 -130 -16 0 -32 26 -48 80 -19 63 -36 92 -83
143 -62 65 -62 57 -8 -105 25 -75 29 -100 20 -109 -19 -19 -37 3 -52 60 -15
59 -61 133 -102 162 l-29 20 0 -25 c0 -13 14 -58 30 -99 31 -78 35 -103 22
-125 -14 -21 -40 18 -53 78 -13 66 -51 138 -91 177 -22 21 -31 25 -37 14 -9
-14 -5 -39 30 -153 20 -68 21 -80 9 -103 -19 -36 -31 -27 -47 35 -19 76 -94
170 -135 170 -22 0 -18 -27 14 -100 30 -68 47 -129 38 -135 -18 -11 -38 8 -51
47 -21 64 -86 137 -136 152 -34 11 -30 -8 22 -110 49 -95 53 -127 18 -132 -17
-3 -24 5 -33 35 -7 21 -21 55 -31 75 -21 41 -83 108 -101 108 -15 0 -3 -49 33
-131 24 -57 29 -79 24 -110 -4 -22 -12 -39 -20 -39 -7 0 -22 27 -34 59 -14 40
-37 76 -69 108 l-47 48 -3 -27 c-2 -15 6 -49 18 -75 38 -85 50 -131 35 -143
-10 -8 -19 0 -38 32 -14 24 -38 55 -54 70 -29 28 -77 51 -87 41 -5 -5 23 -62
69 -138 24 -39 32 -75 18 -75 -5 0 -18 18 -31 40 -27 47 -77 88 -121 96 -28 6
-31 4 -25 -12 4 -11 29 -49 56 -85 26 -37 48 -69 48 -72 0 -4 -9 -11 -19 -17
-17 -8 -27 -3 -63 34 -24 25 -54 47 -66 51 -21 6 -23 4 -17 -17 4 -12 18 -40
32 -62 17 -27 22 -41 14 -49 -7 -7 -16 -6 -28 5 -25 22 -79 48 -98 48 -14 0
-13 -7 8 -45 25 -44 25 -45 6 -55 -14 -8 -27 -7 -48 5 -43 22 -52 20 -41 -11
6 -14 10 -27 10 -29 0 -13 -64 -35 -99 -35 -31 0 -49 -7 -76 -31 -19 -17 -35
-37 -35 -45 0 -35 -350 -251 -680 -418 -520 -263 -805 -378 -1066 -431 -160
-33 -192 -33 -200 0 -5 20 -9 23 -20 14 -11 -9 -14 -8 -14 3 0 8 -6 23 -14 34
-14 19 -15 18 -23 -5 -9 -22 -10 -21 -21 17 -14 45 -39 73 -46 51 -3 -8 -7
-25 -9 -39 -4 -30 -12 -14 -22 42 -6 40 -39 88 -51 75 -5 -4 -9 -29 -10 -55
-1 -26 -2 -48 -3 -49 0 -1 -14 3 -30 8 -26 9 -29 15 -33 65 -8 95 -53 113 -65
25 -4 -28 -11 -42 -24 -46 -29 -9 -39 3 -39 46 0 42 -18 87 -45 109 -23 19
-30 5 -30 -63 0 -48 -3 -62 -15 -62 -9 0 -19 18 -26 52 -6 28 -22 68 -34 87
-22 36 -57 63 -67 52 -3 -3 2 -36 11 -73 9 -38 16 -77 16 -88 0 -34 -26 4 -39
58 -13 52 -48 115 -89 159 -53 57 -55 30 -7 -107 22 -64 31 -103 25 -109 -14
-14 -23 -1 -50 67 -21 54 -96 147 -119 147 -14 0 5 -62 40 -130 16 -32 29 -67
29 -79 0 -33 -27 -25 -39 12 -13 37 -85 111 -119 122 -21 6 -21 5 -12 -21 6
-15 26 -53 46 -84 30 -50 33 -60 24 -85 l-11 -28 -22 28 c-50 62 -109 115
-127 115 -11 0 -20 -3 -20 -6 0 -10 22 -47 56 -91 29 -38 32 -48 23 -66 -11
-20 -12 -20 -44 15 -41 45 -75 68 -97 68 -27 0 -22 -14 22 -65 22 -25 40 -52
40 -58 -1 -27 -28 -47 -64 -47 -20 0 -36 -4 -36 -10 0 -5 18 -24 40 -41 47
-38 49 -46 15 -55 -13 -3 -29 -12 -36 -20 -10 -12 -4 -14 35 -14 26 0 56 5 67
11 21 11 59 4 59 -11 0 -4 -20 -20 -45 -35 -25 -14 -43 -31 -39 -37 10 -16 81
-1 130 28 75 44 92 -2 19 -54 -25 -17 -45 -36 -45 -42 0 -28 105 2 147 42 18
17 26 19 35 10 9 -9 0 -24 -35 -61 -26 -28 -47 -55 -47 -61 0 -31 97 14 137
65 49 61 74 37 28 -26 -36 -51 -57 -90 -51 -96 3 -4 24 2 46 12 38 17 69 47
111 107 27 37 34 12 11 -36 -28 -56 -28 -69 1 -61 41 13 69 36 83 71 15 36 20
39 43 25 12 -8 12 -14 1 -41 -10 -23 -10 -34 -1 -43 16 -16 65 23 69 56 5 40
62 33 62 -7 0 -12 6 -30 13 -41 13 -17 15 -17 35 3 12 12 22 33 22 47 0 21 5
25 30 25 27 0 30 -3 30 -33 0 -19 3 -37 6 -40 12 -12 42 13 54 45 12 33 12 33
19 8 8 -30 30 -32 45 -5 6 11 12 22 14 24 1 3 9 -4 16 -15 14 -18 15 -18 22
-1 3 10 13 16 20 13 7 -3 17 1 21 8 6 9 48 15 143 19 146 7 298 31 481 77 403
102 1021 328 1384 508 214 106 312 146 471 191 239 69 593 123 661 100 67 -22
148 -27 238 -17 86 10 93 9 155 -15 156 -60 237 -70 438 -53 l103 8 -20 -33
c-11 -19 -36 -77 -57 -129 -45 -115 -81 -172 -116 -184 -22 -8 -38 -3 -99 35
-72 43 -75 44 -159 43 -76 0 -94 -4 -167 -37 -86 -39 -160 -50 -200 -28 -12 6
-35 29 -53 51 -19 24 -40 40 -52 40 -12 0 -55 -25 -96 -56 -41 -31 -130 -86
-198 -121 l-124 -65 -78 8 c-101 10 -151 7 -180 -12 -14 -9 -21 -11 -18 -5 4
6 2 11 -4 11 -8 0 -10 9 -6 26 10 40 -11 20 -38 -37 -13 -27 -20 -51 -15 -55
5 -3 9 -27 9 -54 0 -67 12 -92 56 -121 46 -30 157 -63 183 -54 10 3 31 22 48
43 37 45 104 83 219 123 160 55 197 61 310 44 54 -8 142 -26 194 -39 150 -39
515 -114 637 -132 56 -9 192 42 471 176 115 55 213 100 218 100 5 0 14 -10 19
-23 7 -16 20 -23 46 -25 l36 -3 -11 -40 c-8 -30 -7 -45 2 -60 12 -19 11 -20
-9 -14 -15 5 -19 4 -15 -4 27 -42 167 -61 249 -33 46 16 78 44 167 144 24 27
46 48 50 48 17 0 61 -92 109 -232 l51 -146 -51 -122 c-73 -180 -71 -177 -123
-184 -28 -5 -66 -1 -103 8 -32 8 -88 16 -125 17 -38 1 -68 4 -68 6 0 2 8 15
17 30 17 26 17 26 -4 14 -12 -6 -28 -20 -35 -30 -7 -10 -28 -22 -46 -25 -37
-9 -42 -21 -11 -29 12 -3 19 -11 16 -19 -3 -7 -13 -36 -23 -64 l-17 -52 29
-47 c26 -43 36 -50 93 -68 l63 -19 76 35 c43 20 114 50 160 66 120 45 134 53
181 120 42 60 71 87 35 34 -10 -16 -30 -49 -44 -75 -15 -26 -105 -131 -201
-233 -150 -159 -181 -188 -228 -206 -61 -25 -111 -64 -111 -86 0 -12 6 -13 28
-8 15 4 37 7 49 7 12 -1 43 14 70 33 85 62 160 91 293 115 69 12 175 37 237
56 129 39 186 43 242 13 38 -20 51 -20 238 -15 109 3 212 8 229 12 22 4 46 -1
79 -15 26 -12 64 -21 83 -21 20 0 63 -6 96 -14 34 -8 126 -26 206 -41 98 -17
166 -35 209 -55 35 -17 69 -30 76 -30 23 0 250 -117 325 -168 100 -69 257
-216 282 -266 11 -22 36 -63 55 -90 30 -44 33 -55 27 -86 -4 -19 -7 -51 -6
-70 1 -19 0 -77 -4 -128 -6 -90 -7 -94 -45 -138 -21 -25 -39 -54 -39 -64 0
-10 -3 -25 -6 -34 -4 -10 -1 -16 9 -16 20 0 66 55 89 108 11 24 34 60 52 80
17 21 45 57 60 82 51 79 108 141 227 246 137 120 185 151 338 225 62 30 170
82 240 116 120 59 127 61 151 46 24 -14 32 -13 93 6 77 23 167 29 217 13 19
-6 79 -13 134 -17 101 -5 185 -29 350 -97 38 -15 77 -28 88 -28 24 0 70 -24
87 -44 7 -9 25 -22 40 -29 14 -8 60 -31 101 -52 87 -45 206 -119 211 -133 5
-13 183 -134 236 -161 55 -28 63 -45 63 -135 0 -61 3 -76 15 -76 8 0 15 9 15
21 0 11 5 30 12 42 7 13 13 68 14 127 1 58 9 143 18 190 8 47 16 108 16 135 0
28 7 90 16 139 l15 89 -50 98 c-28 54 -55 107 -60 116 -51 93 -212 430 -221
464 -12 44 -23 56 -127 136 -123 96 -189 150 -293 238 -264 227 -439 359 -685
522 -259 171 -287 189 -345 218 -30 15 -73 40 -95 55 -22 15 -70 44 -108 63
-120 64 -220 131 -270 180 -60 59 -82 68 -138 55 -83 -19 -284 -14 -404 11
-60 12 -175 31 -255 42 -80 11 -165 23 -190 27 l-45 7 61 23 c84 30 279 127
394 196 102 61 261 127 361 151 77 18 295 20 350 3 37 -11 39 -13 39 -54 0
-71 11 -69 138 22 77 55 97 63 105 42 3 -9 16 -2 36 19 58 58 404 156 493 139
57 -10 54 -13 57 51 1 12 15 38 32 57 37 43 34 61 -24 123 -52 56 -104 83
-160 83 -25 0 -64 7 -87 15 -23 8 -57 15 -74 15 -26 0 -35 6 -50 34 -14 27
-33 41 -80 61 -34 14 -82 42 -105 61 -48 38 -61 42 -61 19 0 -19 -40 -35 -89
-35 -26 0 -44 7 -60 23 -13 14 -34 24 -52 25 -26 1 -29 -2 -23 -20 6 -21 6
-21 -30 1 -30 19 -36 20 -36 7 0 -18 -23 -12 -60 17 -23 17 -25 17 -28 2 -3
-13 -10 -15 -30 -10 -15 4 -34 13 -43 21 -20 18 -33 18 -25 -1 4 -11 -2 -15
-24 -15 -16 0 -32 5 -35 10 -9 15 -25 12 -25 -5 0 -24 -24 -17 -55 15 -16 16
-33 30 -38 30 -13 0 -1 -44 29 -107 16 -32 23 -61 19 -73 -9 -29 -21 -17 -40
39 -16 48 -86 141 -107 141 -13 0 -3 -40 27 -106 35 -76 35 -84 5 -84 -5 0
-18 20 -29 45 -26 58 -86 132 -124 151 -28 15 -29 15 -22 -8 4 -13 27 -59 51
-104 41 -76 55 -124 36 -124 -13 0 -36 30 -55 72 -9 20 -33 56 -53 78 -40 44
-94 78 -94 60 0 -14 33 -78 70 -137 17 -26 30 -60 30 -75 0 -56 -33 -25 -77
72 -31 67 -101 150 -128 150 -23 0 -18 -17 34 -124 31 -63 46 -107 43 -122 -7
-38 -27 -28 -52 27 -34 71 -134 158 -157 136 -8 -9 7 -44 41 -94 48 -71 68
-115 57 -126 -14 -14 -34 5 -65 57 -30 51 -83 94 -127 103 l-31 6 17 -34 c10
-19 32 -52 50 -74 18 -22 37 -50 44 -62 13 -25 15 -83 3 -83 -13 0 -37 30 -56
68 -23 44 -83 110 -118 128 -35 18 -37 4 -5 -48 69 -114 84 -146 83 -173 -1
-42 -30 -45 -46 -5 -20 49 -67 108 -99 125 -60 31 -58 21 28 -129 16 -27 26
-57 23 -68 -4 -16 -12 -11 -56 36 -45 48 -87 76 -117 76 -21 0 -6 -30 46 -90
51 -59 67 -90 46 -90 -5 0 -15 8 -22 17 -28 34 -93 73 -121 73 l-29 0 18 -31
c10 -17 30 -40 46 -51 37 -27 34 -38 -13 -38 -35 0 -40 3 -45 28 -8 40 -38 95
-54 100 -11 4 -12 -8 -6 -63 5 -54 4 -66 -7 -63 -7 3 -16 26 -19 54 -6 49 -26
94 -41 94 -5 0 -8 -29 -8 -65 0 -49 -3 -65 -14 -65 -18 0 -26 22 -26 71 0 44
-23 109 -39 109 -7 0 -11 -29 -11 -75 0 -60 -3 -77 -16 -82 -24 -9 -34 15 -34
80 0 59 -21 127 -39 127 -6 0 -11 -36 -13 -83 -3 -94 -20 -109 -29 -27 -7 58
-30 123 -48 134 -13 8 -14 -4 -12 -99 1 -38 -3 -77 -8 -85 -6 -8 -11 -10 -11
-5 -13 162 -35 243 -69 253 -12 4 -13 -12 -7 -92 6 -78 4 -100 -8 -117 l-15
-22 -5 24 c-3 13 -7 52 -9 87 -3 38 -15 84 -30 115 -41 86 -57 210 -57 435 0
166 3 215 20 285 24 101 71 218 105 263 13 17 28 51 31 75 6 36 34 95 84 179
15 25 60 118 60 125 0 3 42 73 94 156 52 82 97 157 100 167 9 27 82 65 116 60
25 -4 29 -1 32 21 3 22 10 27 48 34 74 13 76 15 52 40 -20 21 -20 25 -6 45 11
17 14 42 11 109 -3 80 -6 91 -30 115 -30 30 -30 30 -52 188 -9 63 -21 133 -27
155 -5 22 -16 78 -24 125 -8 47 -22 132 -33 190 -10 58 -24 139 -30 180 -7 41
-16 95 -21 120 -5 25 -14 88 -20 140 -7 52 -18 133 -27 180 -8 47 -16 96 -19
110 -2 14 -8 54 -13 90 -5 36 -15 101 -21 144 -6 44 -15 87 -20 97 -6 10 -10
34 -10 53 0 20 -7 53 -15 73 -8 21 -19 63 -24 93 -17 95 -41 203 -56 255 -14
47 -51 191 -81 315 -27 111 -37 146 -49 176 -7 17 -17 53 -20 80 -4 27 -11 54
-16 59 -4 6 -22 60 -39 120 -35 125 -64 223 -91 310 -11 33 -19 70 -19 82 0
12 -9 42 -19 65 -11 24 -26 88 -34 143 -14 95 -17 104 -70 180 -30 44 -72 114
-93 155 -22 41 -51 91 -65 110 -14 19 -45 69 -68 110 -23 41 -58 100 -77 130
-18 30 -42 73 -53 94 -10 21 -47 82 -81 135 -82 127 -200 320 -200 326 0 2
-24 44 -53 92 -29 48 -71 123 -92 165 -38 78 -66 105 -234 233 -14 11 -46 38
-71 61 -25 24 -63 57 -86 76 -23 18 -80 67 -128 108 -150 130 -264 222 -444
358 -31 24 -89 75 -129 113 -101 96 -244 164 -276 132z m4097 -8115 c5 -15 7
-31 3 -35 -8 -8 -33 23 -41 50 -8 30 27 16 38 -15z m76 -8 c0 -5 -4 -10 -10
-10 -5 0 -10 5 -10 10 0 6 5 10 10 10 6 0 10 -4 10 -10z m-3322 -1677 c-2 -9
-18 -21 -36 -25 -53 -14 -61 -3 -17 20 49 26 57 27 53 5z m57 -121 c0 -7 -12
-21 -27 -30 -27 -16 -29 -16 -50 5 l-22 22 25 10 c32 13 74 9 74 -7z m-2477
-98 c4 -46 -6 -40 -18 11 -6 26 -5 35 3 32 7 -2 13 -21 15 -43z m92 38 c0 -5
-6 -17 -14 -27 -13 -18 -14 -18 -9 8 5 24 23 39 23 19z m2459 -638 c36 -8 40
-27 9 -48 -30 -21 -54 -20 -54 2 -1 9 -4 25 -9 35 -8 19 2 21 54 11z"/>
</g>
</svg>
