<?xml version="1.0" standalone="no"?>
<!DOCTYPE svg PUBLIC "-//W3C//DTD SVG 20010904//EN"
 "http://www.w3.org/TR/2001/REC-SVG-20010904/DTD/svg10.dtd">
<svg version="1.0" xmlns="http://www.w3.org/2000/svg"
 width="1120.000000pt" height="1280.000000pt" viewBox="0 0 1120.000000 1280.000000"
 preserveAspectRatio="xMidYMid meet">
<metadata>
Created by potrace 1.15, written by Peter Selinger 2001-2017
</metadata>
<g transform="translate(0.000000,1280.000000) scale(0.100000,-0.100000)"
fill="#000000" stroke="none">
<path d="M4024 12724 c95 -173 261 -360 546 -618 80 -72 188 -172 241 -222 53
-50 152 -135 220 -189 298 -235 363 -337 271 -425 -67 -63 -170 -84 -467 -95
-99 -4 -207 -11 -240 -16 -105 -17 -451 -115 -715 -202 -399 -132 -676 -263
-1013 -481 -212 -136 -307 -188 -457 -250 -215 -88 -493 -299 -782 -592 -164
-166 -228 -243 -333 -395 -44 -63 -155 -217 -248 -344 -394 -536 -557 -823
-710 -1246 -205 -565 -295 -1096 -328 -1929 -19 -491 -5 -834 45 -1090 85
-439 366 -1244 592 -1695 116 -232 223 -387 390 -570 75 -82 185 -210 243
-284 58 -74 146 -184 194 -245 220 -279 384 -434 686 -650 234 -167 859 -571
1009 -651 505 -271 1159 -447 1917 -517 182 -16 722 -17 885 0 884 90 1651
345 2565 855 478 266 698 428 1015 747 357 359 671 784 953 1290 400 720 601
1397 679 2290 19 218 16 803 -5 1025 -20 209 -27 254 -95 630 -74 406 -94 498
-143 655 -51 161 -102 256 -180 332 -76 75 -109 90 -139 63 -30 -27 -35 -80
-17 -175 19 -97 88 -343 148 -529 100 -306 116 -523 73 -971 -39 -402 -107
-811 -184 -1105 -85 -326 -318 -1031 -408 -1234 -174 -395 -446 -776 -827
-1157 -753 -754 -1612 -1184 -2628 -1314 -212 -27 -376 -39 -626 -46 -180 -5
-235 -3 -331 11 -63 10 -160 21 -215 24 l-99 6 157 108 c202 139 267 194 324
274 116 163 169 425 144 709 -6 67 -33 281 -61 475 -73 509 -90 672 -90 850 0
264 37 389 145 487 53 49 65 57 230 165 102 66 210 167 202 190 -6 19 -48 37
-87 37 -19 0 -66 -12 -105 -26 -95 -35 -165 -54 -197 -54 l-27 0 19 32 c38 67
130 296 136 341 6 42 5 47 -13 47 -31 0 -90 -45 -175 -132 -80 -82 -131 -113
-173 -102 -47 12 -48 25 -10 125 71 186 94 329 54 337 -36 7 -122 -80 -183
-183 -85 -145 -146 -234 -168 -246 -65 -35 -95 41 -123 316 -8 83 -20 168 -26
190 l-11 39 -13 -25 c-23 -43 -44 -140 -65 -304 -24 -192 -45 -295 -72 -352
-17 -36 -23 -41 -38 -33 -34 18 -88 91 -99 133 -6 23 -15 61 -21 85 -14 54
-32 55 -99 2 -73 -58 -111 -128 -111 -206 0 -113 47 -211 199 -412 200 -264
214 -291 253 -467 19 -86 16 -370 -5 -462 -40 -175 -124 -361 -234 -517 -73
-103 -255 -284 -358 -357 -359 -255 -818 -362 -1140 -268 -213 63 -436 210
-657 436 -368 373 -560 727 -786 1448 -28 88 -60 196 -72 239 -139 522 -121
1280 46 1948 69 275 136 459 267 728 49 102 106 227 127 277 l37 93 72 -158
c133 -292 232 -412 445 -540 221 -133 455 -183 1036 -222 808 -55 1012 -97
1109 -230 16 -22 68 -118 116 -213 90 -175 158 -291 188 -316 30 -24 65 -6 77
40 12 43 9 69 -22 247 -10 63 -18 115 -16 117 2 2 46 -30 98 -71 104 -82 204
-145 262 -163 75 -24 74 -18 -6 148 -70 143 -106 244 -93 258 11 11 103 -28
201 -86 109 -65 176 -88 220 -77 66 16 44 63 -110 233 -67 74 -132 155 -145
179 -24 45 -24 45 -5 60 25 18 57 17 221 -1 150 -17 214 -19 235 -5 12 8 9 15
-20 46 -25 26 -101 69 -275 154 -132 64 -255 131 -273 148 -29 27 -32 34 -22
52 12 23 52 43 107 55 25 5 39 1 62 -16 30 -22 31 -22 75 -5 25 10 48 22 51
26 7 12 -96 94 -155 124 -67 35 -136 46 -278 46 -150 0 -211 -18 -344 -98
-174 -104 -208 -116 -368 -131 -215 -20 -440 15 -606 94 -85 41 -99 53 -236
194 -179 184 -277 313 -389 513 -200 355 -249 542 -173 651 95 135 369 250
814 341 69 14 249 46 400 70 757 123 795 125 1260 61 146 -21 326 -39 445 -44
281 -14 457 -46 725 -133 172 -56 273 -95 660 -256 410 -171 570 -231 753
-283 197 -56 266 -63 472 -49 353 23 611 76 750 154 77 42 102 82 87 135 -7
20 -25 50 -41 65 l-30 29 -20 -24 c-11 -13 -30 -41 -43 -61 -13 -21 -25 -37
-28 -37 -3 0 -36 43 -74 95 -105 146 -160 167 -243 92 l-22 -20 -63 125 -63
126 -63 -60 c-35 -32 -64 -59 -66 -59 -1 0 -28 54 -61 120 -33 66 -62 120 -65
120 -3 0 -23 -27 -45 -59 l-40 -59 -83 125 -83 124 -18 -23 c-10 -13 -30 -40
-44 -61 l-26 -38 -84 126 -85 126 -21 -33 c-12 -18 -32 -46 -44 -61 l-24 -28
-79 120 c-43 66 -81 121 -84 121 -3 0 -23 -25 -44 -55 -22 -30 -42 -55 -45
-55 -3 0 -41 54 -85 120 -43 66 -80 120 -81 120 -1 0 -21 -27 -44 -59 l-43
-59 -60 121 c-33 67 -62 124 -64 126 -2 2 -32 -15 -68 -37 l-65 -41 -11 34
c-15 45 4 90 75 172 30 36 55 69 55 74 0 22 18 6 23 -20 8 -40 63 -150 92
-187 l24 -29 39 39 c22 21 44 36 49 33 5 -3 42 -48 83 -101 41 -52 77 -95 80
-96 3 0 24 18 47 39 l41 39 83 -104 c45 -57 85 -104 89 -104 3 0 23 18 45 40
l39 40 84 -127 c73 -110 86 -124 95 -108 6 11 25 39 43 62 l33 44 83 -124 83
-124 33 46 c18 25 37 53 42 61 5 8 11 12 13 10 3 -3 30 -57 62 -120 32 -63 58
-116 60 -118 3 -3 77 61 110 95 l21 22 61 -124 62 -123 42 36 c24 21 54 48 67
60 19 18 27 21 33 11 26 -42 195 -278 199 -278 3 0 22 27 44 59 21 33 42 58
45 55 4 -2 52 -58 107 -124 96 -116 99 -119 111 -97 7 13 18 56 24 95 30 183
-49 394 -241 646 -261 342 -1121 1130 -1720 1577 -472 351 -778 524 -1710 969
-746 355 -696 335 -1140 474 -237 74 -386 138 -523 225 -88 55 -224 110 -427
171 -253 77 -265 81 -444 167 -5 3 8 -26 28 -64z"/>
</g>
</svg>
